<?xml version="1.0" encoding="UTF-8"?>
<svg version="1.1" xmlns="http://www.w3.org/2000/svg" width="601" height="161">
<path d="M0 0 C198.33 0 396.66 0 601 0 C601 53.13 601 106.26 601 161 C402.67 161 204.34 161 0 161 C0 107.87 0 54.74 0 0 Z " fill="#FDFDFD" transform="translate(0,0)"/>
<path d="M0 0 C0.88735336 -0.00852997 1.77470673 -0.01705994 2.68894958 -0.02584839 C3.65991577 -0.02494202 4.63088196 -0.02403564 5.63127136 -0.02310181 C6.65595016 -0.02981903 7.68062897 -0.03653625 8.73635864 -0.04345703 C12.13261226 -0.06249522 15.52866883 -0.06636433 18.92497253 -0.06851196 C21.28285809 -0.07493639 23.64074285 -0.08166448 25.99862671 -0.08868408 C30.94585518 -0.10067182 35.89301376 -0.10436342 40.84025574 -0.10317993 C47.17903481 -0.10297679 53.51736531 -0.13026799 59.85603809 -0.16472435 C64.72794655 -0.18696589 69.59974664 -0.19101829 74.47170067 -0.18996048 C76.80847913 -0.19232099 79.14526037 -0.20116974 81.48198891 -0.21662521 C84.7521207 -0.23622668 88.02128007 -0.23046918 91.29142761 -0.21841431 C92.25632111 -0.22965332 93.2212146 -0.24089233 94.21534729 -0.25247192 C101.25061543 -0.18658907 104.6314586 1.24344285 109.65544128 6.26742554 C110.58977757 9.0790251 110.78576363 11.66896938 110.8026123 14.61834717 C110.80976761 15.48183273 110.81692291 16.3453183 110.82429504 17.23497009 C110.82698395 18.17428879 110.82967285 19.11360748 110.83244324 20.08139038 C110.83901443 21.0769545 110.84558563 22.07251862 110.85235596 23.09825134 C110.87206147 26.39162269 110.8837439 29.68494854 110.89372253 32.97836304 C110.89779806 34.10355976 110.90187359 35.22875648 110.90607262 36.38805008 C110.92691907 42.34067857 110.94122842 48.29328408 110.9506073 54.24594116 C110.96168415 60.3952198 110.99610317 66.54413782 111.035779 72.6932888 C111.06190946 77.42192258 111.07029585 82.15046983 111.07388878 86.87916946 C111.07876193 89.14617989 111.09039654 91.41318626 111.10892677 93.68012619 C111.13324731 96.85193369 111.13236613 100.02279964 111.12541199 103.19467163 C111.13822205 104.12994186 111.1510321 105.0652121 111.16423035 106.02882385 C111.11957096 111.61863057 110.40033155 114.83724443 106.65544128 119.26742554 C103.1271751 122.36802309 100.12043319 123.38775741 95.46273804 123.41459656 C94.60904129 123.42175186 93.75534454 123.42890717 92.8757782 123.4362793 C91.94221497 123.4389682 91.00865173 123.4416571 90.04679871 123.44442749 C89.06113419 123.45099869 88.07546967 123.45756989 87.05993652 123.46434021 C83.79359361 123.48407335 80.52729665 123.49573523 77.26091003 123.50570679 C75.58828818 123.51182008 75.58828818 123.51182008 73.88187599 123.51805687 C67.98112294 123.53891662 62.08039315 123.55321937 56.17961121 123.56259155 C50.0829893 123.5736621 43.98673176 123.60807006 37.89023876 123.64776325 C33.20363685 123.67389693 28.51712224 123.68228047 23.83045387 123.68587303 C21.58298084 123.69074654 19.3355119 123.70238216 17.08810997 123.72091103 C13.9425344 123.74523507 10.7979081 123.74434957 7.65226746 123.73739624 C6.72477692 123.7502063 5.79728638 123.76301636 4.84169006 123.7762146 C-0.70826876 123.73151516 -4.04195679 123.11182018 -8.34455872 119.26742554 C-12.9256805 114.14628763 -12.92341447 109.69056562 -12.87800598 103.15048218 C-12.88662155 102.14647873 -12.89523712 101.14247528 -12.90411377 100.10804749 C-12.92676905 96.79762809 -12.92003518 93.48805556 -12.91096497 90.17758179 C-12.91620085 87.87121835 -12.9224772 85.56485706 -12.92974854 83.25849915 C-12.94015208 78.42746903 -12.93559185 73.59673348 -12.92097473 68.76571655 C-12.90379058 62.5805403 -12.9272789 56.39629331 -12.96246433 50.21122074 C-12.98444497 45.44903936 -12.98299508 40.68708008 -12.97469902 35.92486382 C-12.97387981 33.64473896 -12.9807373 31.36459775 -12.99547005 29.08452034 C-13.01292662 25.89369032 -12.99836246 22.70452698 -12.97566223 19.51376343 C-12.98735443 18.57587982 -12.99904663 17.63799622 -13.01109314 16.67169189 C-12.91860785 10.26900848 -11.61455899 7.08011049 -7.34455872 2.26742554 C-4.22831362 0.18992881 -3.53777597 0.01537697 0 0 Z " fill="#2F9517" transform="translate(40.34455871582031,20.732574462890625)"/>
<path d="M0 0 C3.43716788 1.27025769 3.99980813 1.95671347 5.875 5.0625 C6.98849383 7.9544804 7.8690228 10.90515935 8.75 13.875 C9.26977953 15.57584323 9.79062847 17.27635999 10.3125 18.9765625 C10.57160156 19.82637695 10.83070313 20.67619141 11.09765625 21.55175781 C12.25919467 25.30341018 13.4975992 29.02786481 14.75 32.75 C15.15992188 33.97074219 15.56984375 35.19148438 15.9921875 36.44921875 C16.42917969 37.74279297 16.42917969 37.74279297 16.875 39.0625 C17.06610352 38.33248779 17.25720703 37.60247559 17.45410156 36.8503418 C18.33908355 33.4821387 19.23199442 30.11608431 20.125 26.75 C20.42535156 25.60208984 20.72570312 24.45417969 21.03515625 23.27148438 C26.4255615 3.02879234 26.4255615 3.02879234 30.875 0.0625 C36.14738806 -0.48670709 36.14738806 -0.48670709 38.5 1.2890625 C40.2157796 3.50202824 40.47709989 4.97713362 40.875 7.75 C41.02839844 8.81089844 41.18179688 9.87179688 41.33984375 10.96484375 C41.51902582 12.33062489 41.69730474 13.69652463 41.875 15.0625 C41.99375488 15.93793457 42.11250977 16.81336914 42.23486328 17.71533203 C43.916523 30.14961148 45.34018677 42.52205174 45.875 55.0625 C43.235 55.0625 40.595 55.0625 37.875 55.0625 C35.75158427 41.09042451 34.08759985 27.1429241 32.875 13.0625 C32.35306532 14.87468316 31.83259393 16.68728769 31.3125 18.5 C30.9515625 19.75296875 30.590625 21.0059375 30.21875 22.296875 C29.16173104 26.00622856 28.15496113 29.72766965 27.15625 33.453125 C26.85275635 34.57146729 26.5492627 35.68980957 26.23657227 36.84204102 C25.6248206 39.09816821 25.02102024 41.35646778 24.42553711 43.61694336 C24.1394458 44.66503174 23.85335449 45.71312012 23.55859375 46.79296875 C23.18045532 48.20678833 23.18045532 48.20678833 22.79467773 49.64916992 C21.82511499 52.19340346 21.05277968 53.44709381 18.875 55.0625 C15.6875 55.25 15.6875 55.25 12.875 55.0625 C9.88178887 47.94898028 7.44490826 40.77067541 5.25 33.375 C4.9509375 32.38177734 4.651875 31.38855469 4.34375 30.36523438 C2.81504176 25.27517707 1.31992234 20.17695283 -0.125 15.0625 C-0.58410869 18.56239873 -1.04209461 22.06244366 -1.5 25.5625 C-1.63647949 26.60229004 -1.77295898 27.64208008 -1.91357422 28.71337891 C-2.54125949 33.51232481 -3.16210482 38.31128591 -3.734375 43.1171875 C-3.82283691 43.85517578 -3.91129883 44.59316406 -4.00244141 45.35351562 C-4.23680484 47.32642125 -4.46620697 49.29991439 -4.6953125 51.2734375 C-5.125 54.0625 -5.125 54.0625 -6.125 55.0625 C-8.45797433 55.10342937 -10.79205225 55.10491723 -13.125 55.0625 C-14.33251511 51.47570883 -13.96549388 48.63941799 -13.41796875 44.92578125 C-13.24467041 43.71599609 -13.07137207 42.50621094 -12.89282227 41.25976562 C-12.70131592 39.97779297 -12.50980957 38.69582031 -12.3125 37.375 C-10.75281075 26.98320204 -10.75281075 26.98320204 -9.5859375 16.54296875 C-9.51479736 15.76848389 -9.44365723 14.99399902 -9.37036133 14.19604492 C-9.20060163 12.21536396 -9.05438978 10.23270324 -8.91015625 8.25 C-7.69718856 3.32571325 -5.23707944 0.10474159 0 0 Z " fill="#090909" transform="translate(183.125,44.9375)"/>
<path d="M0 0 C13.847338 -0.11690735 27.69459924 -0.20469148 41.54232979 -0.25906086 C47.97240438 -0.2851554 54.40214746 -0.32055215 60.83203125 -0.37719727 C67.03714125 -0.43152016 73.24193237 -0.46142161 79.44726181 -0.47438622 C81.81477758 -0.48362544 84.18227588 -0.50166749 86.54965591 -0.52865028 C89.86568174 -0.56494269 93.18038959 -0.56994504 96.49658203 -0.56762695 C97.4755394 -0.58560333 98.45449677 -0.60357971 99.46311951 -0.62210083 C103.89782429 -0.58855206 107.00750633 -0.48247533 110.54318237 2.36360168 C112.81749246 4.8041521 114.44830125 7.05993921 116 10 C116.495 10.495 116.495 10.495 117 11 C117.10605711 14.15954077 117.14677353 17.29734261 117.14526367 20.45751953 C117.14862228 21.45103928 117.1519809 22.44455902 117.15544128 23.46818542 C117.16498751 26.77307364 117.16689658 30.07791133 117.16796875 33.3828125 C117.17118003 35.67389955 117.174544 37.96498639 117.17805481 40.256073 C117.18405614 45.06980871 117.18589381 49.88352644 117.18530273 54.69726562 C117.18520134 60.86098993 117.19882568 67.02459845 117.21607494 73.18829536 C117.22720644 77.92555264 117.22922155 82.6627821 117.22869301 87.40005112 C117.22987246 89.67179639 117.23429228 91.94354239 117.24202538 94.21527481 C117.2518433 97.39896924 117.2489394 100.58241468 117.24291992 103.76611328 C117.24853943 104.70250137 117.25415894 105.63888947 117.25994873 106.60365295 C117.23514376 111.77717137 116.85898648 116.14515797 115 121 C112.5625 122.75 112.5625 122.75 110 124 C109.5413386 124.51264656 109.08267719 125.02529312 108.61011696 125.55347443 C106.53145394 127.42094076 105.44100291 127.38096947 102.67562866 127.39440918 C101.79261078 127.40575897 100.9095929 127.41710876 99.99981689 127.42880249 C99.03356384 127.42587189 98.06731079 127.42294128 97.07177734 127.41992188 C96.05191742 127.42839142 95.0320575 127.43686096 93.98129272 127.44558716 C90.59938174 127.46904267 87.21792379 127.46997686 83.8359375 127.46875 C81.4852378 127.47584916 79.13453985 127.48354779 76.78384399 127.49182129 C71.84917391 127.50528775 66.91466382 127.50682633 61.97998047 127.50097656 C55.66827863 127.49509502 49.35734986 127.52559872 43.04579735 127.56609344 C38.18661389 127.59200339 33.32761535 127.59484451 28.46837234 127.59120178 C26.14244274 127.59289161 23.81650446 127.60252085 21.49064255 127.62034607 C18.2281078 127.64258721 14.96712126 127.63280453 11.70458984 127.61523438 C10.27342834 127.63512924 10.27342834 127.63512924 8.81335449 127.65542603 C2.22972576 127.57342629 -2.74453331 126.0773683 -8 122 C-9.7706852 119.97115326 -9.7706852 119.97115326 -11 118 C-10.6875 115.75 -10.6875 115.75 -10 114 C-9.443125 114.928125 -8.88625 115.85625 -8.3125 116.8125 C-5.86978194 120.17948976 -4.74682904 121.32849328 -1 123 C2.27994564 123.43344993 5.53112006 123.40984621 8.83569336 123.38818359 C9.82164993 123.39344055 10.80760651 123.39869751 11.82344055 123.40411377 C15.07906997 123.41730547 18.33420944 123.40857771 21.58984375 123.3984375 C23.85518996 123.40045863 26.12053553 123.40337039 28.38587952 123.40713501 C33.13288571 123.41155738 37.87972249 123.40513053 42.62670898 123.39111328 C48.70755233 123.3740314 54.78799814 123.38385707 60.86882687 123.40183067 C65.54686978 123.41267906 70.22481869 123.40921711 74.90286446 123.4014473 C77.14473073 123.39944771 79.38660557 123.40189607 81.62846184 123.40888596 C84.76417465 123.41651648 87.89924691 123.40487278 91.03491211 123.38818359 C92.42143478 123.39729263 92.42143478 123.39729263 93.83596802 123.40658569 C98.93690329 123.35636699 102.69457559 123.03298926 107 120 C111.62163023 114.95593295 111.56394263 110.43163041 111.48583984 103.94311523 C111.48963654 102.94565277 111.49343323 101.94819031 111.49734497 100.92050171 C111.50473705 97.63287626 111.4833875 94.34614027 111.4609375 91.05859375 C111.45855235 88.76986291 111.4576479 86.48113009 111.4581604 84.19239807 C111.45503476 79.40003165 111.43848617 74.60796488 111.41162109 69.81567383 C111.3776227 63.67316096 111.36999324 57.53097694 111.37151146 51.388381 C111.37096762 46.66405601 111.35999842 41.93980288 111.34550858 37.21550179 C111.33914544 34.95048631 111.33520281 32.6854627 111.33372116 30.42043877 C111.32938419 27.25598148 111.31187479 24.09187262 111.29052734 20.92749023 C111.29143372 19.99176682 111.29234009 19.0560434 111.29327393 18.09196472 C111.32747897 11.75658381 111.32747897 11.75658381 109 6 C103.94356359 1.37605579 99.36046219 1.41939222 92.86376953 1.45410156 C91.8582756 1.44376389 90.85278168 1.43342621 89.81681824 1.42277527 C86.50531922 1.39336295 83.19443184 1.39184838 79.8828125 1.390625 C77.58209061 1.37564236 75.28137947 1.35891504 72.98068237 1.34051514 C66.93415837 1.29683927 60.88777946 1.27684181 54.84112549 1.26177979 C48.66743388 1.24220974 42.49389898 1.20023952 36.3203125 1.16015625 C24.21359 1.08485138 12.10690257 1.03456142 0 1 C0 0.67 0 0.34 0 0 Z " fill="#ABC5AF" transform="translate(39,20)"/>
<path d="M0 0 C5.41364613 5.18672683 8.12126822 9.06578756 8.375 16.6875 C8.33065975 22.79906506 6.88476211 26.36515414 3 31 C2.360625 31.78375 1.72125 32.5675 1.0625 33.375 C-2.95605782 36.54113646 -6.56828658 37.20628196 -11.5625 36.75 C-14.94938812 36.27514913 -17.90047831 35.49976856 -21 34 C-21 31.36 -21 28.72 -21 26 C-20.38125 26.33 -19.7625 26.66 -19.125 27 C-14.80046167 28.38385227 -10.50037558 28.6805446 -6 28 C-2.92408392 26.17584803 -2.15316983 25.4595095 -1 22 C-0.42945172 16.73465444 -0.14435283 12.45460018 -2.875 7.8125 C-7.27046165 5.26313224 -11.03653382 4.95677558 -16 6 C-18.82424288 8.19022918 -20.41508603 9.83017207 -22 13 C-22.15720097 15.9148537 -22.25855654 18.80939636 -22.31640625 21.7265625 C-22.33718735 22.58937836 -22.35796844 23.45219421 -22.37937927 24.34115601 C-22.44486034 27.10235493 -22.50375298 29.86365038 -22.5625 32.625 C-22.6056866 34.49480172 -22.64930093 36.36459362 -22.69335938 38.234375 C-22.80054024 42.82281728 -22.90181175 47.41135683 -23 52 C-25.31 52 -27.62 52 -30 52 C-30.09911689 46.12846769 -30.17158611 40.25742587 -30.21972656 34.38525391 C-30.23980169 32.38907382 -30.26706789 30.39295225 -30.30175781 28.39697266 C-30.35045657 25.5223138 -30.37300986 22.6484346 -30.390625 19.7734375 C-30.41127014 18.88570648 -30.43191528 17.99797546 -30.45318604 17.08334351 C-30.45556085 10.4773258 -29.05635356 7.22050554 -24.47265625 2.390625 C-16.72400584 -3.87698143 -8.78729459 -5.11260776 0 0 Z " fill="#070707" transform="translate(484,64)"/>
<path d="M0 0 C1.06992187 0.01353516 2.13984375 0.02707031 3.2421875 0.04101562 C5.87031511 0.07621376 8.49739194 0.12545307 11.125 0.1875 C11.16754356 2.18704746 11.16580783 4.18791636 11.125 6.1875 C9.51418551 7.79831449 7.72958101 7.35307926 5.50390625 7.3984375 C4.56869141 7.42679688 3.63347656 7.45515625 2.66992188 7.484375 C0.68573375 7.53635111 -1.29867059 7.58065436 -3.28320312 7.6171875 C-4.68795898 7.66359375 -4.68795898 7.66359375 -6.12109375 7.7109375 C-6.98404053 7.73075684 -7.8469873 7.75057617 -8.73608398 7.77099609 C-9.79484741 7.97716553 -9.79484741 7.97716553 -10.875 8.1875 C-13.13642258 10.93444525 -13.13642258 10.93444525 -12.75 13.6875 C-11.66963565 16.77425528 -10.63767282 17.49919994 -7.875 19.1875 C-7.06417969 19.69410156 -6.25335938 20.20070313 -5.41796875 20.72265625 C-3.03811056 22.09354231 -0.62589628 23.36233299 1.8125 24.625 C6.80840345 27.31981307 10.57515226 31.08780453 13.125 36.1875 C13.68766426 40.79950214 13.52900598 44.31484709 11.5625 48.5625 C7.95305136 52.44959854 4.52199675 53.98565639 -0.69311523 54.42480469 C-3.90481038 54.48218785 -7.10120958 54.4493266 -10.3125 54.375 C-11.42560547 54.36146484 -12.53871094 54.34792969 -13.68554688 54.33398438 C-16.41587212 54.29882997 -19.14517744 54.24962106 -21.875 54.1875 C-21.875 51.5475 -21.875 48.9075 -21.875 46.1875 C-13.295 45.8575 -4.715 45.5275 4.125 45.1875 C4.98091554 37.80822684 4.98091554 37.80822684 2.578125 35.33984375 C1.85109375 34.93894531 1.1240625 34.53804687 0.375 34.125 C-0.43839844 33.650625 -1.25179688 33.17625 -2.08984375 32.6875 C-3.00894531 32.1925 -3.92804688 31.6975 -4.875 31.1875 C-6.98371424 30.00809428 -9.08781374 28.8204042 -11.1875 27.625 C-12.17363281 27.08746094 -13.15976562 26.54992187 -14.17578125 25.99609375 C-18.09448633 23.37039121 -20.38266106 20.66451682 -21.875 16.1875 C-22.26677998 12.03463223 -22.13015206 9.69780413 -20.25 5.9375 C-14.53092137 -0.68459105 -8.14428819 -0.19558328 0 0 Z " fill="#0D0D0D" transform="translate(354.875,45.8125)"/>
<path d="M0 0 C2.31 0 4.62 0 7 0 C7.12417084 5.83488314 7.21460824 11.66898684 7.2746582 17.50488281 C7.29970683 19.48744109 7.33375584 21.46990789 7.37719727 23.45214844 C7.43827619 26.31207926 7.46630629 29.17078292 7.48828125 32.03125 C7.51408768 32.90865845 7.5398941 33.78606689 7.56648254 34.69006348 C7.56933076 41.02723675 5.95493439 45.04911237 2 50 C-1.59422044 53.50655653 -5.47331175 55.29199911 -10.5 55.5 C-17.10063931 55.05692783 -22.0135604 53.49343097 -26.4375 48.4375 C-29.74723698 44.24396404 -30.18157348 41.6556954 -30.25 36.25 C-30.27578125 35.03828125 -30.3015625 33.8265625 -30.328125 32.578125 C-29.89651797 27.87155312 -28.43335227 24.71578622 -25.4140625 21.1015625 C-20.11762618 16.7302679 -15.71475092 16.40147628 -8.953125 16.59375 C-6.16811777 16.97687269 -4.38710258 17.5631033 -2 19 C-2 21.31 -2 23.62 -2 26 C-3.17755859 25.71382812 -3.17755859 25.71382812 -4.37890625 25.421875 C-11.46561166 23.74430806 -11.46561166 23.74430806 -18.1875 25.75 C-21.17905974 28.14324779 -21.85734097 28.73441064 -22.2734375 32.42578125 C-22.5808307 38.72564959 -22.5808307 38.72564959 -19.625 44.125 C-15.02376973 47.41159305 -11.48735624 47.42408329 -5.8808136 46.74229431 C-3.85588427 46.16629085 -3.85588427 46.16629085 -2.97111511 44.2490387 C-1.28953277 38.75689238 -0.53631286 33.76172785 -0.48828125 28.02734375 C-0.47033005 27.21882462 -0.45237885 26.41030548 -0.43388367 25.57728577 C-0.38031456 23.03074138 -0.34605921 20.48437843 -0.3125 17.9375 C-0.27927956 16.19593856 -0.24478563 14.45440092 -0.20898438 12.71289062 C-0.12462007 8.47539263 -0.05755742 4.23794342 0 0 Z " fill="#060606" transform="translate(321,46)"/>
<path d="M0 0 C5.70532368 4.14239536 7.79746876 10.42707556 10.21142578 16.82275391 C11.19356053 19.42252235 12.20601682 22.00965902 13.21875 24.59765625 C14.66567384 28.32406309 16.10937335 32.05153203 17.52734375 35.7890625 C17.82431152 36.56926758 18.1212793 37.34947266 18.42724609 38.15332031 C19.06640625 40.0859375 19.06640625 40.0859375 19.06640625 42.0859375 C10.93189802 42.47674128 5.71176713 42.30741921 -0.62109375 36.7109375 C-5.1192795 31.60488881 -7.28978604 25.86349416 -9.5078125 19.52539062 C-11.18987259 15.0503912 -12.96872255 12.72711345 -16.93359375 10.0859375 C-17.92359375 9.4259375 -18.91359375 8.7659375 -19.93359375 8.0859375 C-19.46054693 3.82851613 -17.04721155 1.82888652 -13.93359375 -0.9140625 C-9.16815705 -2.5025414 -4.57610184 -2.16324814 0 0 Z " fill="#F6FCF4" transform="translate(82.93359375,61.9140625)"/>
<path d="M0 0 C7.47862181 6.52390413 10.76592585 15.42068692 14.08984375 24.52172852 C14.82159747 26.52490433 15.56949289 28.52147891 16.3203125 30.51757812 C19.9375 40.21971197 19.9375 40.21971197 19.9375 42.5625 C9.23263658 43.18608428 9.23263658 43.18608428 4.5625 40.9375 C3.69625 40.15375 2.83 39.37 1.9375 38.5625 C0.926875 37.77875 -0.08375 36.995 -1.125 36.1875 C-5.00052305 32.24132939 -6.15081848 27.06117918 -7.84765625 21.921875 C-10.06521403 15.78972167 -13.0422768 11.48660841 -19.0625 8.5625 C-18.58945318 4.30507863 -16.1761178 2.30544902 -13.0625 -0.4375 C-8.28814743 -2.02895086 -4.60357748 -2.1608629 0 0 Z " fill="#F7FCF6" transform="translate(111.0625,61.4375)"/>
<path d="M0 0 C3.60560149 2.53113225 6.20051116 5.28978131 8.75 8.875 C8.75 9.535 8.75 10.195 8.75 10.875 C4.98105858 12.8577851 1.20953347 14.83560441 -2.5625 16.8125 C-3.63435547 17.37646484 -4.70621094 17.94042969 -5.81054688 18.52148438 C-6.83857422 19.05966797 -7.86660156 19.59785156 -8.92578125 20.15234375 C-9.87364502 20.64984131 -10.82150879 21.14733887 -11.7980957 21.65991211 C-14.25 22.875 -14.25 22.875 -17.25 23.875 C-19.25 20.875 -19.25 20.875 -19.30859375 18.953125 C-17.61128675 15.62114225 -14.4945808 14.32799666 -11.3125 12.625 C-10.66603516 12.26148437 -10.01957031 11.89796875 -9.35351562 11.5234375 C-4.55944549 8.875 -4.55944549 8.875 -2.25 8.875 C-2.25 8.215 -2.25 7.555 -2.25 6.875 C-10.06714449 5.43424637 -10.06714449 5.43424637 -17.25 7.875 C-20.51914859 12.60962899 -20.77924378 16.31794033 -20.25 21.875 C-19.01467542 24.71624653 -17.9944561 26.29597859 -15.5625 28.1875 C-11.1421279 29.50166468 -5.55248022 29.66468715 -1.25 27.875 C-0.1124787 25.79465706 -0.1124787 25.79465706 0.5 23.3125 C0.86351562 22.07306641 0.86351562 22.07306641 1.234375 20.80859375 C1.40453125 20.17050781 1.5746875 19.53242187 1.75 18.875 C4.39 18.875 7.03 18.875 9.75 18.875 C9.3145996 24.31750504 8.29353898 27.67870384 4.75 31.875 C-1.56430335 36.30065011 -6.63548578 37.66655272 -14.25 36.875 C-20.16109693 35.08839903 -23.82045901 31.91844264 -27.25 26.875 C-29.63442492 21.65197398 -30.2719981 16.31615817 -28.6328125 10.796875 C-26.24640866 5.26379706 -22.46389144 1.81799731 -17.25 -1.125 C-11.33189608 -3.02391917 -5.43453612 -3.2113168 0 0 Z " fill="#0A0A0A" transform="translate(524.25,64.125)"/>
<path d="M0 0 C2.64 0 5.28 0 8 0 C8 5.94 8 11.88 8 18 C9.32 17.34 10.64 16.68 12 16 C17.82172937 14.44607976 21.97620221 14.87620653 27.2734375 17.69921875 C29.4358792 19.32838863 30.6032087 20.6558955 32 23 C32.34057617 26.29980469 32.34057617 26.29980469 32.29296875 30.171875 C32.28872391 30.8542926 32.28447906 31.53671021 32.28010559 32.23980713 C32.26336972 34.41028004 32.22572959 36.57980979 32.1875 38.75 C32.17244646 40.22524697 32.15875922 41.70050855 32.14648438 43.17578125 C32.11348377 46.78415844 32.06173767 50.3919871 32 54 C29.69 54 27.38 54 25 54 C24.98541748 53.26885986 24.97083496 52.53771973 24.95581055 51.78442383 C24.8811709 48.45992629 24.78456199 45.13641533 24.6875 41.8125 C24.66494141 40.66201172 24.64238281 39.51152344 24.61914062 38.32617188 C24.5659668 36.65844727 24.5659668 36.65844727 24.51171875 34.95703125 C24.48553467 33.93585205 24.45935059 32.91467285 24.43237305 31.86254883 C23.93806235 28.58993846 22.95960611 26.64942328 21 24 C18.8427983 23.25107256 18.8427983 23.25107256 16.5 23.4375 C15.7265625 23.43621094 14.953125 23.43492188 14.15625 23.43359375 C11.18341095 24.21450256 10.56533992 25.38708223 9 28 C8.51482107 30.78185053 8.51482107 30.78185053 8.5234375 33.82421875 C8.47703125 35.49000977 8.47703125 35.49000977 8.4296875 37.18945312 C8.41164063 38.34380859 8.39359375 39.49816406 8.375 40.6875 C8.32423907 42.9831631 8.26976144 45.2787481 8.2109375 47.57421875 C8.19337402 48.59088623 8.17581055 49.60755371 8.15771484 50.6550293 C8 53 8 53 7 54 C4 54.125 4 54.125 1 54 C0 53 0 53 -0.12025452 50.86766052 C-0.11803391 49.92834183 -0.11581329 48.98902313 -0.11352539 48.02124023 C-0.11344986 46.96021591 -0.11337433 45.89919159 -0.11329651 44.80601501 C-0.10813522 43.651866 -0.10297394 42.49771698 -0.09765625 41.30859375 C-0.0962413 40.13361832 -0.09482635 38.95864288 -0.09336853 37.74806213 C-0.08774992 33.97784936 -0.07519426 30.20769496 -0.0625 26.4375 C-0.0574874 23.88867273 -0.05292408 21.33984453 -0.04882812 18.79101562 C-0.03777444 12.52732367 -0.02101821 6.26366601 0 0 Z " fill="#121212" transform="translate(373,46)"/>
<path d="M0 0 C4.00319236 2.01502971 6.81103403 5.36683399 8.5625 9.4375 C9.16246513 14.10165023 9.03494373 18.68249711 8.875 23.375 C8.85244141 24.63119141 8.82988281 25.88738281 8.80664062 27.18164062 C8.74796147 30.26816415 8.66590527 33.35220486 8.5625 36.4375 C6.22955225 36.47991723 3.89547433 36.47842937 1.5625 36.4375 C-0.12991255 34.74508745 0.43342993 32.58046322 0.421875 30.265625 C0.39287109 28.68007812 0.39287109 28.68007812 0.36328125 27.0625 C0.32966487 24.82830353 0.31121634 22.59382282 0.30859375 20.359375 C0.20483914 13.86669428 0.20483914 13.86669428 -2.703125 8.203125 C-6.76572051 5.57984904 -9.76428856 5.65721787 -14.4375 6.4375 C-17.33478868 7.6703888 -18.83433427 8.6620012 -20.75 11.125 C-22.15223415 15.84160577 -22.14113949 19.89619445 -20.125 24.3125 C-18.16350065 26.78253622 -16.54554696 28.27772544 -13.3515625 28.73828125 C-8.52073953 28.76301243 -5.40984814 28.5128663 -1.4375 25.4375 C-1.4375 28.4075 -1.4375 31.3775 -1.4375 34.4375 C-7.08196279 36.9965983 -12.32686704 37.33984735 -18.4375 36.4375 C-24.11822709 33.81423431 -27.09038833 30.20748286 -29.4375 24.4375 C-30.20528704 18.35053967 -30.38052757 12.50490659 -27.8125 6.875 C-20.08825823 -1.0525113 -10.90122538 -4.86810446 0 0 Z " fill="#090909" transform="translate(440.4375,63.5625)"/>
<path d="M0 0 C3.6689014 1.90478108 6.15262072 4.30524143 8 8 C8.08573394 10.25120742 8.10712188 12.50499303 8.09765625 14.7578125 C8.0962413 15.42086395 8.09482635 16.08391541 8.09336853 16.76705933 C8.08776754 18.88641863 8.075215 21.00567259 8.0625 23.125 C8.05748512 24.56119639 8.05292219 25.99739444 8.04882812 27.43359375 C8.03779782 30.95576345 8.02053259 34.47787145 8 38 C5.69 38 3.38 38 1 38 C0.98541748 37.26885986 0.97083496 36.53771973 0.95581055 35.78442383 C0.8811709 32.45992629 0.78456199 29.13641533 0.6875 25.8125 C0.66494141 24.66201172 0.64238281 23.51152344 0.61914062 22.32617188 C0.5659668 20.65844727 0.5659668 20.65844727 0.51171875 18.95703125 C0.48553467 17.93585205 0.45935059 16.91467285 0.43237305 15.86254883 C-0.06193765 12.58993846 -1.04039389 10.64942328 -3 8 C-5.1572017 7.25107256 -5.1572017 7.25107256 -7.5 7.4375 C-8.2734375 7.43621094 -9.046875 7.43492188 -9.84375 7.43359375 C-12.81658905 8.21450256 -13.43466008 9.38708223 -15 12 C-15.48517893 14.78185053 -15.48517893 14.78185053 -15.4765625 17.82421875 C-15.5075 18.93474609 -15.5384375 20.04527344 -15.5703125 21.18945312 C-15.58835937 22.34380859 -15.60640625 23.49816406 -15.625 24.6875 C-15.67576093 26.9831631 -15.73023856 29.2787481 -15.7890625 31.57421875 C-15.80662598 32.59088623 -15.82418945 33.60755371 -15.84228516 34.6550293 C-16 37 -16 37 -17 38 C-18.99958364 38.04080783 -21.00045254 38.04254356 -23 38 C-23.17452809 34.01692377 -23.30074085 30.03535981 -23.38452148 26.04931641 C-23.43656965 24.03598769 -23.5255711 22.02372323 -23.61523438 20.01171875 C-23.80862391 9.01614211 -23.80862391 9.01614211 -19.59765625 4.125 C-13.93825597 -1.28903998 -7.55180238 -0.91664416 0 0 Z " fill="#090909" transform="translate(278,62)"/>
<path d="M0 0 C13.847338 -0.11690735 27.69459924 -0.20469148 41.54232979 -0.25906086 C47.97240438 -0.2851554 54.40214746 -0.32055215 60.83203125 -0.37719727 C67.03714125 -0.43152016 73.24193237 -0.46142161 79.44726181 -0.47438622 C81.81477758 -0.48362544 84.18227588 -0.50166749 86.54965591 -0.52865028 C89.86568174 -0.56494269 93.18038959 -0.56994504 96.49658203 -0.56762695 C97.4755394 -0.58560333 98.45449677 -0.60357971 99.46311951 -0.62210083 C103.89782429 -0.58855206 107.00750633 -0.48247533 110.54318237 2.36360168 C112.81749246 4.8041521 114.44830125 7.05993921 116 10 C116.495 10.495 116.495 10.495 117 11 C117.10605711 14.15954077 117.14677353 17.29734261 117.14526367 20.45751953 C117.14862228 21.45103928 117.1519809 22.44455902 117.15544128 23.46818542 C117.16498751 26.77307364 117.16689658 30.07791133 117.16796875 33.3828125 C117.17118003 35.67389955 117.174544 37.96498639 117.17805481 40.256073 C117.18405614 45.06980871 117.18589381 49.88352644 117.18530273 54.69726562 C117.18520134 60.86098993 117.19882568 67.02459845 117.21607494 73.18829536 C117.22720644 77.92555264 117.22922155 82.6627821 117.22869301 87.40005112 C117.22987246 89.67179639 117.23429228 91.94354239 117.24202538 94.21527481 C117.2518433 97.39896924 117.2489394 100.58241468 117.24291992 103.76611328 C117.24853943 104.70250137 117.25415894 105.63888947 117.25994873 106.60365295 C117.23516539 111.77265992 116.89985681 116.16189219 115 121 C114.01 121.66 113.02 122.32 112 123 C112.16168702 122.4325922 112.32337404 121.8651844 112.48996067 121.28058243 C113.01130849 118.94943537 113.13947498 116.8966239 113.16062927 114.51068115 C113.1706749 113.61642929 113.18072052 112.72217743 113.19107056 111.80082703 C113.19690155 110.82724747 113.20273254 109.85366791 113.20874023 108.85058594 C113.21852402 107.81922012 113.2283078 106.78785431 113.23838806 105.72523499 C113.26830571 102.31162807 113.28971652 98.89806019 113.30859375 95.484375 C113.31845149 93.73412899 113.31845149 93.73412899 113.32850838 91.94852448 C113.36108471 85.77314974 113.38554088 79.59779215 113.4050293 73.42236328 C113.42284763 68.31436064 113.45768012 63.20690947 113.50756836 58.09912109 C113.56776686 51.92824959 113.59850452 45.75788974 113.60820198 39.58673859 C113.61675722 37.23761287 113.6355768 34.88850085 113.6649456 32.53954315 C113.70388551 29.24808744 113.70489082 25.95862383 113.69702148 22.66699219 C113.71702209 21.70150955 113.73702271 20.73602692 113.75762939 19.74128723 C113.69328019 13.72980084 112.47048847 10.25613569 108.67862034 5.57030106 C105.54372189 2.6376937 102.85603213 1.75260511 98.60870361 1.7215271 C97.73654709 1.71036362 96.86439056 1.69920013 95.96580505 1.68769836 C95.01706009 1.68553818 94.06831512 1.68337799 93.09082031 1.68115234 C92.08561844 1.67110672 91.08041656 1.6610611 90.04475403 1.65071106 C86.72255016 1.61982282 83.40042709 1.60282808 80.078125 1.5859375 C77.77454938 1.56723041 75.47098064 1.54765735 73.16741943 1.5272522 C67.1044724 1.47587661 61.04150313 1.43627983 54.97845459 1.39910889 C48.79156979 1.35910333 42.60477789 1.30799525 36.41796875 1.2578125 C24.27871105 1.1609889 12.13940095 1.07660463 0 1 C0 0.67 0 0.34 0 0 Z " fill="#D5E0CF" transform="translate(39,20)"/>
<path d="M0 0 C3.16459604 1.45020565 5.16471419 3.0271888 7 6 C8.13843065 10.92273114 7.80241833 14.67185932 5.1875 19 C1.11908256 22.71969594 -1.37161757 23.49027277 -6.70703125 23.39453125 C-10.58307419 22.72761415 -12.32149114 20.8124343 -15 18 C-16.88258744 14.23482511 -16.63179563 10.09103307 -16 6 C-12.76021536 -0.53079117 -6.67812305 -1.53544246 0 0 Z " fill="#F8FDF6" transform="translate(64,81)"/>
<path d="M0 0 C1.98 0 3.96 0 6 0 C5.01 1.485 5.01 1.485 4 3 C3.34 3 2.68 3 2 3 C1.67 4.98 1.34 6.96 1 9 C2.3303125 9.7115625 2.3303125 9.7115625 3.6875 10.4375 C9.71170495 14.49606061 11.85671951 21.59262391 14.3125 28.125 C16.70010291 34.08640345 19.91098658 37.24783558 25 41 C25.66 41.66 26.32 42.32 27 43 C24 43 21 43 18 43 C17.071875 43.165 16.14375 43.33 15.1875 43.5 C9.18647213 44.42223588 3.05241061 44.0755502 -3 44 C-3 43.34 -3 42.68 -3 42 C1.29 42.33 5.58 42.66 10 43 C8.52785327 39.21263827 7.05375246 35.42611839 5.57495117 31.64135742 C5.07450277 30.35890831 4.57511837 29.07604338 4.0769043 27.79272461 C0.95154459 19.74484469 -2.32329591 11.81261772 -6 4 C-4.68 4 -3.36 4 -2 4 C-1.34 2.68 -0.68 1.36 0 0 Z " fill="#358A2B" transform="translate(92,61)"/>
<path d="M0 0 C0 2.31 0 4.62 0 7 C-1.98567708 7.5859375 -3.97135417 8.171875 -5.95703125 8.7578125 C-9.14029377 10.6933335 -9.75527115 12.47832814 -11 16 C-11.48610304 19.95529373 -11.60168609 23.89323459 -11.6875 27.875 C-11.72166016 28.94492188 -11.75582031 30.01484375 -11.79101562 31.1171875 C-11.87312498 33.74468689 -11.94239624 36.37186816 -12 39 C-14.31 39 -16.62 39 -19 39 C-19 26.46 -19 13.92 -19 1 C-16.69 1 -14.38 1 -12 1 C-11.67 1.66 -11.34 2.32 -11 3 C-10.29875 2.505 -9.5975 2.01 -8.875 1.5 C-5.62880281 -0.1936681 -3.60659844 -0.25162315 0 0 Z " fill="#090909" transform="translate(558,61)"/>
<path d="M0 0 C0.33 0 0.66 0 1 0 C1.09268583 13.32584803 1.16375812 26.65161934 1.20724869 39.97772408 C1.22812214 46.16560376 1.25643601 52.35326288 1.30175781 58.54101562 C1.34522322 64.51269575 1.36913893 70.48416373 1.37950897 76.45598984 C1.38689901 78.73417373 1.40132997 81.01234603 1.42292023 83.29043961 C1.45196262 86.48180469 1.45595554 89.67229353 1.45410156 92.86376953 C1.46848267 93.80532394 1.48286377 94.74687836 1.49768066 95.71696472 C1.4615248 101.46982015 0.74774354 104.57561532 -3 109 C-6.54697736 112.11704071 -9.55092779 113.12601362 -14.233078 113.12025452 C-15.09544571 113.12162918 -15.95781342 113.12300385 -16.84631348 113.12442017 C-17.78930298 113.12082489 -18.73229248 113.11722961 -19.70385742 113.11352539 C-21.19681084 113.11374443 -21.19681084 113.11374443 -22.71992493 113.1139679 C-26.01512825 113.11327032 -29.31027529 113.10548511 -32.60546875 113.09765625 C-34.88804595 113.09579152 -37.17062355 113.09436788 -39.45320129 113.09336853 C-45.46525169 113.08954767 -51.47727798 113.07972104 -57.48931885 113.06866455 C-63.62243321 113.05844118 -69.75555145 113.05386892 -75.88867188 113.04882812 C-87.92579185 113.03809841 -99.96289392 113.02102714 -112 113 C-112 112.67 -112 112.34 -112 112 C-79.66 112 -47.32 112 -14 112 C-13.67 111.34 -13.34 110.68 -13 110 C-11.515 110.495 -11.515 110.495 -10 111 C-10.33 109.35 -10.66 107.7 -11 106 C-9.02 106.66 -7.04 107.32 -5 108 C-4.67 107.34 -4.34 106.68 -4 106 C-3.67 106 -3.34 106 -3 106 C-3 103.69 -3 101.38 -3 99 C-2.34 99 -1.68 99 -1 99 C-1.00222061 98.23167847 -1.00444122 97.46335693 -1.00672913 96.67175293 C-1.02715551 89.26478548 -1.04218237 81.85783253 -1.05181217 74.45084381 C-1.05692999 70.6470668 -1.06381228 66.8433139 -1.07543945 63.03955078 C-1.13805029 42.00449125 -0.80398647 21.02064569 0 0 Z " fill="#287431" transform="translate(150,31)"/>
<path d="M0 0 C3 0.125 3 0.125 4 1.125 C4.10095564 3.77956193 4.13970998 6.40755176 4.1328125 9.0625 C4.13376923 9.857771 4.13472595 10.65304199 4.13571167 11.47241211 C4.13639343 13.1570646 4.13453943 14.84171971 4.13037109 16.52636719 C4.12502275 19.11399197 4.13031619 21.70144316 4.13671875 24.2890625 C4.13605797 25.92187539 4.1347768 27.55468816 4.1328125 29.1875 C4.13483673 29.96665771 4.13686096 30.74581543 4.13894653 31.54858398 C4.11495105 37.01004895 4.11495105 37.01004895 3 38.125 C0 38.25 0 38.25 -3 38.125 C-4.78830448 36.33669552 -4.12848711 33.92918848 -4.13894653 31.54858398 C-4.1369223 30.76942627 -4.13489807 29.99026855 -4.1328125 29.1875 C-4.13376923 28.392229 -4.13472595 27.59695801 -4.13571167 26.77758789 C-4.13639343 25.0929354 -4.13453943 23.40828029 -4.13037109 21.72363281 C-4.12502275 19.13600803 -4.13031619 16.54855684 -4.13671875 13.9609375 C-4.13605797 12.32812461 -4.1347768 10.69531184 -4.1328125 9.0625 C-4.13483673 8.28334229 -4.13686096 7.50418457 -4.13894653 6.70141602 C-4.11025565 0.17126065 -4.11025565 0.17126065 0 0 Z " fill="#1F1F1F" transform="translate(240,61.875)"/>
<path d="M0 0 C0.53625 0.7425 1.0725 1.485 1.625 2.25 C4.14794339 5.17130287 6.79649169 6.88859679 10 9 C10 9.66 10 10.32 10 11 C45.97 10.67 81.94 10.34 119 10 C118.67 10.99 118.34 11.98 118 13 C104.33484436 13.11599855 90.66980642 13.20476908 77.00425816 13.25906086 C70.65834183 13.28512208 64.31276308 13.32045779 57.96704102 13.37719727 C51.83972303 13.43163925 45.71272916 13.46144668 39.58518791 13.47438622 C37.25085284 13.48360408 34.91653492 13.50160452 32.58233833 13.52865028 C29.30523878 13.56510115 26.02946787 13.56993845 22.75219727 13.56762695 C21.31396606 13.59459152 21.31396606 13.59459152 19.84667969 13.62210083 C13.24047666 13.57188746 8.27040113 12.09727083 3 8 C0.23008726 4.96323154 0 4.32571037 0 0 Z " fill="#CACDCA" transform="translate(28,134)"/>
<path d="M0 0 C0.99 0.495 0.99 0.495 2 1 C-0.14061892 3.79103161 -1.58349706 5.67058661 -5.07647705 6.48289299 C-7.67799453 6.66979749 -10.24325259 6.70657554 -12.8515625 6.69116211 C-13.83912537 6.7048584 -14.82668823 6.71855469 -15.84417725 6.73266602 C-19.10472188 6.77162211 -22.3642396 6.77504609 -25.625 6.77734375 C-27.89275664 6.79554184 -30.1604988 6.81563373 -32.42822266 6.83753967 C-37.17940931 6.87832485 -41.93029457 6.90269976 -46.68164062 6.91430664 C-52.77174326 6.92956751 -58.86111585 6.97537235 -64.95095825 7.0321722 C-69.63317744 7.07420498 -74.31541417 7.10517254 -78.9977417 7.13226509 C-81.24323966 7.14561515 -83.48872543 7.16121152 -85.73419189 7.1790905 C-88.87233873 7.20139699 -92.01022101 7.21005527 -95.1484375 7.21459961 C-96.07638123 7.22328568 -97.00432495 7.23197174 -97.96038818 7.24092102 C-106.10130829 7.22610823 -106.10130829 7.22610823 -110 5 C-110.33 4.34 -110.66 3.68 -111 3 C-75.36 3.33 -39.72 3.66 -3 4 C-2.67 3.01 -2.34 2.02 -2 1 C-1.34 0.67 -0.68 0.34 0 0 Z " fill="#E4E4E4" transform="translate(149,143)"/>
<path d="M0 0 C1.33319778 -0.01062721 1.33319778 -0.01062721 2.69332886 -0.02146912 C3.66586609 -0.0189917 4.63840332 -0.01651428 5.64041138 -0.01396179 C7.17983902 -0.02162819 7.17983902 -0.02162819 8.75036621 -0.02944946 C12.15143628 -0.04337787 15.55230442 -0.0423861 18.95339966 -0.04008484 C21.31368078 -0.04397024 23.67396121 -0.04830459 26.03424072 -0.05307007 C30.9856696 -0.06053947 35.93702719 -0.06023596 40.88845825 -0.05497742 C47.23623236 -0.04918473 53.58371452 -0.06610571 59.93144035 -0.08932209 C64.80759388 -0.10404923 69.68367696 -0.10493246 74.55984879 -0.10181236 C76.90023501 -0.10232618 79.24062513 -0.10757521 81.58098984 -0.11762428 C84.85359441 -0.12995003 88.12562855 -0.12321959 91.39822388 -0.11161804 C92.36671265 -0.11926178 93.33520142 -0.12690552 94.33303833 -0.13478088 C99.27117846 -0.09605528 102.61677207 0.05844511 106.64871216 3.26069641 C105.98871216 3.59069641 105.32871216 3.92069641 104.64871216 4.26069641 C103.86077271 3.95607483 103.07283325 3.65145325 102.26101685 3.33760071 C97.10980768 1.80191649 92.19866681 1.99568764 86.85183716 2.03022766 C85.68539169 2.0302327 84.51894623 2.03023773 83.31715393 2.03024292 C79.51089592 2.03374989 75.70491364 2.05265598 71.89871216 2.07319641 C69.27997914 2.08140068 66.66124539 2.08937452 64.04251099 2.09712219 C48.13889546 2.15820008 32.23672921 2.31398158 16.33621216 2.63569641 C15.45525879 2.65089325 14.57430542 2.66609009 13.66665649 2.68174744 C11.20588621 2.72645122 8.74580659 2.78417342 6.28543091 2.84663391 C5.57664291 2.85820023 4.86785492 2.86976654 4.1375885 2.88168335 C0.24969543 2.99945485 -2.93560252 3.33535185 -6.35128784 5.26069641 C-10.75703986 11.11062755 -10.99346972 18.28071267 -11.10128784 25.32319641 C-11.13093628 26.2841925 -11.16058472 27.2451886 -11.19113159 28.23530579 C-11.26103837 30.57718272 -11.3141192 32.91811056 -11.35128784 35.26069641 C-11.68128784 35.26069641 -12.01128784 35.26069641 -12.35128784 35.26069641 C-12.49728259 31.0735669 -12.58559502 26.88709747 -12.66378784 22.69819641 C-12.70568237 21.51677063 -12.7475769 20.33534485 -12.79074097 19.11811829 C-12.89382957 11.7575918 -12.52061597 7.65708141 -7.35128784 2.26069641 C-4.23103875 0.18053035 -3.54275503 0.00941561 0 0 Z " fill="#579C31" transform="translate(40.351287841796875,20.739303588867188)"/>
<path d="M0 0 C3.63711204 3.15527241 5.10613249 6.12973268 6.75 10.625 C7.17796875 11.77226563 7.6059375 12.91953125 8.046875 14.1015625 C9 17 9 17 9 19 C8.34 19 7.68 19 7 19 C6.67 18.01 6.34 17.02 6 16 C5.34 16.33 4.68 16.66 4 17 C3.835 18.155 3.67 19.31 3.5 20.5 C3.335 21.655 3.17 22.81 3 24 C2.34 24.33 1.68 24.66 1 25 C1.06960937 24.19175781 1.13921875 23.38351563 1.2109375 22.55078125 C1.64429796 16.64344048 1.64429796 16.64344048 0.015625 11.08984375 C-2.98405466 8.19970295 -5.97345692 7.65142602 -10.0625 7.4375 C-14.4920446 7.64461295 -16.89774819 8.69093141 -20 12 C-20 11.01 -20 10.02 -20 9 C-19.34 9 -18.68 9 -18 9 C-18 8.01 -18 7.02 -18 6 C-14.43913342 4.81304447 -11.02668976 4.64904582 -7.3125 4.4375 C-6.61060547 4.39431641 -5.90871094 4.35113281 -5.18554688 4.30664062 C-3.45724794 4.2008264 -1.7286489 4.09993419 0 4 C0 2.68 0 1.36 0 0 Z " fill="#4CA02E" transform="translate(69,74)"/>
<path d="M0 0 C0 0.66 0 1.32 0 2 C-1.12019531 2.60328125 -2.24039063 3.2065625 -3.39453125 3.828125 C-4.86744616 4.63494463 -6.34008823 5.44226251 -7.8125 6.25 C-8.55048828 6.64574219 -9.28847656 7.04148437 -10.04882812 7.44921875 C-13.81425875 9.52787276 -16.77476617 11.16520968 -19 15 C-19.44935518 8.59668868 -18.85562461 5.21030353 -15 0 C-10.14687357 -2.93741863 -4.83875104 -2.97769295 0 0 Z " fill="#EFEFEF" transform="translate(522,71)"/>
<path d="M0 0 C6.0546875 -0.1953125 6.0546875 -0.1953125 8 0 C8.66 0.66 9.32 1.32 10 2 C9.69903201 6.13830989 9.32101984 8.51847024 7 12 C3.875 12.1875 3.875 12.1875 1 12 C0.34 13.65 -0.32 15.3 -1 17 C-1.66 17 -2.32 17 -3 17 C-2.25339288 11.27601207 -1.17122859 5.65146223 0 0 Z " fill="#1E1E1E" transform="translate(397,127)"/>
<path d="M0 0 C6.15234375 -0.09765625 6.15234375 -0.09765625 8 0 C9.87643761 1.87643761 9.17984987 4.49805701 9.23046875 6.9921875 C9 9 9 9 7 12 C3.875 12.1875 3.875 12.1875 1 12 C0.34 13.65 -0.32 15.3 -1 17 C-1.66 17 -2.32 17 -3 17 C-2.36934845 11.2190275 -1.34844868 5.6556294 0 0 Z " fill="#161616" transform="translate(495,127)"/>
<path d="M0 0 C2.64 0 5.28 0 8 0 C10 2 10 2 10.046875 3.875 C9.94890625 4.57625 9.8509375 5.2775 9.75 6 C9.61851562 7.051875 9.61851562 7.051875 9.484375 8.125 C9 10 9 10 7 12 C5.01178687 12.39764263 3.01055661 12.73775349 1 13 C0.67 14.32 0.34 15.64 0 17 C-0.99 16.67 -1.98 16.34 -3 16 C-2.01 10.72 -1.02 5.44 0 0 Z " fill="#1B1B1B" transform="translate(482,127)"/>
<path d="M0 0 C1.32 0.33 2.64 0.66 4 1 C5.67293936 0.69972883 7.33985384 0.36442233 9 0 C11.75 -0.125 11.75 -0.125 14 0 C14.33 0.33 14.66 0.66 15 1 C14.91036938 2.69141656 14.75422324 4.37959602 14.5625 6.0625 C14.46066406 6.98160156 14.35882812 7.90070313 14.25390625 8.84765625 C14.17011719 9.55792969 14.08632813 10.26820313 14 11 C13.01 11.33 12.02 11.66 11 12 C11.33 8.7 11.66 5.4 12 2 C7.96622064 3.50821227 7.96622064 3.50821227 6.953125 6.1640625 C6.60507812 7.38222656 6.60507812 7.38222656 6.25 8.625 C6.00765625 9.44226563 5.7653125 10.25953125 5.515625 11.1015625 C5.34546875 11.72804687 5.1753125 12.35453125 5 13 C4.34 13 3.68 13 3 13 C2.67 12.34 2.34 11.68 2 11 C0.68 11.33 -0.64 11.66 -2 12 C-1.34 8.04 -0.68 4.08 0 0 Z " fill="#212121" transform="translate(507,127)"/>
<path d="M0 0 C0.33 0 0.66 0 1 0 C1.09272147 13.56934595 1.16377626 27.13861641 1.20724869 40.70821476 C1.22811435 47.00928508 1.25641404 53.31013849 1.30175781 59.61108398 C1.34525093 65.69299385 1.36914479 71.77469519 1.37950897 77.85674858 C1.38689403 80.17597167 1.4013153 82.49518349 1.42292023 84.8143177 C1.45199937 88.06534523 1.45595399 91.31551352 1.45410156 94.56665039 C1.46848267 95.523311 1.48286377 96.47997162 1.49768066 97.46562195 C1.46068271 103.47494398 0.61379056 107.12873802 -3 112 C-4.485 112.495 -4.485 112.495 -6 113 C-4.79618552 110.50638429 -3.54571278 108.31856917 -2 106 C-0.57633181 101.18002496 -0.82562915 96.14309099 -0.79467773 91.16088867 C-0.77982834 89.68212753 -0.77982834 89.68212753 -0.76467896 88.17349243 C-0.73314383 84.92167546 -0.70833807 81.66984389 -0.68359375 78.41796875 C-0.66301733 76.16066615 -0.64202068 73.90336734 -0.62062073 71.64607239 C-0.56547114 65.70971757 -0.51603048 59.77332838 -0.46777344 53.83691406 C-0.41750647 47.7773127 -0.36184753 41.71776114 -0.30664062 35.65820312 C-0.19914605 23.77217798 -0.09768176 11.88610956 0 0 Z " fill="#F1F0F0" transform="translate(156,33)"/>
<path d="M0 0 C0.66 0.33 1.32 0.66 2 1 C1.27087654 1.92174263 1.27087654 1.92174263 0.52702332 2.86210632 C-1.64395164 7.32326189 -1.43967073 11.30494544 -1.43237305 16.20629883 C-1.4425647 17.23115387 -1.45275635 18.25600891 -1.46325684 19.31192017 C-1.49341003 22.69367931 -1.50265656 26.07515528 -1.51171875 29.45703125 C-1.52856366 31.80402062 -1.54671365 34.15100096 -1.56611633 36.49797058 C-1.61364254 42.67106301 -1.64343515 48.84411881 -1.66955566 55.01733398 C-1.6993478 61.31827019 -1.74588281 67.61908018 -1.79101562 73.91992188 C-1.87707869 86.27988194 -1.94441078 98.63986795 -2 111 C-2.33 111 -2.66 111 -3 111 C-3.07005151 96.97039804 -3.12276981 82.94082316 -3.15543652 68.91108227 C-3.1711125 62.39695877 -3.19238621 55.8829525 -3.22631836 49.36889648 C-3.25884261 43.08601537 -3.27683844 36.80324724 -3.28463173 30.52028847 C-3.2901877 28.11962416 -3.3010367 25.71896623 -3.31719017 23.31834984 C-3.33887195 19.96364202 -3.34197077 16.60940494 -3.34057617 13.25463867 C-3.351362 12.25554474 -3.36214783 11.25645081 -3.3732605 10.2270813 C-3.36913651 9.31422867 -3.36501251 8.40137604 -3.36076355 7.46086121 C-3.36352893 6.66719745 -3.36629431 5.87353369 -3.36914349 5.05581951 C-2.91191558 2.50944368 -1.96153892 1.62132061 0 0 Z " fill="#EEFEE0" transform="translate(30,24)"/>
<path d="M0 0 C2 2 2 2 2.3125 4.875 C1.9653943 8.34605699 1.53651257 9.63841933 -1 12 C-3.5 12.875 -3.5 12.875 -6 13 C-6.99 12.34 -7.98 11.68 -9 11 C-9.65158371 4.15837104 -9.65158371 4.15837104 -7.875 1 C-5.14368353 -0.45670212 -3.03989923 -0.32339354 0 0 Z " fill="#0A0A0A" transform="translate(436,127)"/>
<path d="M0 0 C1.32091644 0.0001133 1.32091644 0.0001133 2.66851807 0.00022888 C3.61031921 0.00539017 4.55212036 0.01055145 5.52246094 0.01586914 C6.97891022 0.01799156 6.97891022 0.01799156 8.46478271 0.02015686 C11.56216529 0.02574876 14.65947525 0.0382998 17.75683594 0.05102539 C19.85839739 0.05604144 21.95995998 0.06060416 24.06152344 0.06469727 C29.20998886 0.07571554 34.35840009 0.09297465 39.50683594 0.11352539 C39.50683594 0.44352539 39.50683594 0.77352539 39.50683594 1.11352539 C38.26071533 1.13334473 37.01459473 1.15316406 35.73071289 1.17358398 C31.09932542 1.24976193 26.46824713 1.33846071 21.8371582 1.4309082 C19.83429069 1.46914756 17.83135569 1.5040092 15.82836914 1.53540039 C12.94620676 1.58116035 10.06450699 1.63913693 7.18261719 1.69946289 C6.28972488 1.7110141 5.39683258 1.72256531 4.47688293 1.73446655 C-1.76529969 1.83505399 -1.76529969 1.83505399 -7.49316406 4.11352539 C-11.89891608 9.96345653 -12.13534594 17.13354165 -12.24316406 24.17602539 C-12.2728125 25.13702148 -12.30246094 26.09801758 -12.33300781 27.08813477 C-12.40291459 29.4300117 -12.45599542 31.77093954 -12.49316406 34.11352539 C-12.82316406 34.11352539 -13.15316406 34.11352539 -13.49316406 34.11352539 C-13.63915882 29.92639588 -13.72747124 25.73992644 -13.80566406 21.55102539 C-13.84755859 20.36959961 -13.88945312 19.18817383 -13.93261719 17.97094727 C-14.07082165 8.1031483 -14.07082165 8.1031483 -11.22363281 3.83618164 C-7.56592502 0.18893939 -5.01103932 -0.01439954 0 0 Z " fill="#53AD12" transform="translate(41.4931640625,21.886474609375)"/>
<path d="M0 0 C0.66 0 1.32 0 2 0 C2 1.98 2 3.96 2 6 C5.465 5.505 5.465 5.505 9 5 C9.33 3.35 9.66 1.7 10 0 C10.99 0 11.98 0 13 0 C12.68806536 1.72926874 12.37542638 3.45841044 12.0625 5.1875 C11.88847656 6.15042969 11.71445312 7.11335937 11.53515625 8.10546875 C11.0476265 10.74239972 10.53328895 13.3719905 10 16 C9.01 15.67 8.02 15.34 7 15 C7.33 13.02 7.66 11.04 8 9 C5.36 9 2.72 9 0 9 C0 10.98 0 12.96 0 15 C-0.99 15.33 -1.98 15.66 -3 16 C-2.52013969 10.43109483 -1.70084819 5.32932432 0 0 Z " fill="#2E2E2E" transform="translate(455,123)"/>
<path d="M0 0 C1.23556641 0.01740234 1.23556641 0.01740234 2.49609375 0.03515625 C3.32238281 0.04417969 4.14867187 0.05320312 5 0.0625 C5.63808594 0.07410156 6.27617187 0.08570312 6.93359375 0.09765625 C7.59359375 1.74765625 8.25359375 3.39765625 8.93359375 5.09765625 C7.94359375 5.09765625 6.95359375 5.09765625 5.93359375 5.09765625 C5.60359375 4.43765625 5.27359375 3.77765625 4.93359375 3.09765625 C3.28359375 3.09765625 1.63359375 3.09765625 -0.06640625 3.09765625 C-0.06640625 3.75765625 -0.06640625 4.41765625 -0.06640625 5.09765625 C3.39859375 7.07765625 3.39859375 7.07765625 6.93359375 9.09765625 C7.15582569 11.83851681 7.28140514 13.53729346 5.80859375 15.91015625 C3.06203403 17.64964407 1.11512401 17.49534753 -2.06640625 17.09765625 C-3.94140625 15.84765625 -3.94140625 15.84765625 -5.06640625 14.09765625 C-5.06640625 12.77765625 -5.06640625 11.45765625 -5.06640625 10.09765625 C-4.40640625 10.09765625 -3.74640625 10.09765625 -3.06640625 10.09765625 C-2.73640625 11.08765625 -2.40640625 12.07765625 -2.06640625 13.09765625 C-0.08640625 13.09765625 1.89359375 13.09765625 3.93359375 13.09765625 C3.2109114 9.79914235 3.2109114 9.79914235 -0.12890625 8.41015625 C-1.09828125 7.97703125 -2.06765625 7.54390625 -3.06640625 7.09765625 C-3.10894981 5.09810879 -3.10721408 3.09723989 -3.06640625 1.09765625 C-2.06640625 0.09765625 -2.06640625 0.09765625 0 0 Z " fill="#111111" transform="translate(361.06640625,122.90234375)"/>
<path d="M0 0 C0.33 0 0.66 0 1 0 C1 25.08 1 50.16 1 76 C1.66 76 2.32 76 3 76 C3.226875 76.928125 3.45375 77.85625 3.6875 78.8125 C5.22428705 82.54469713 6.52758945 83.1724155 10 85 C10 85.66 10 86.32 10 87 C5.57258356 85.64717831 3.63690779 83.76701112 1 80 C-0.50252915 76.9949417 -0.12992759 73.90743067 -0.11352539 70.61279297 C-0.11367142 69.85172241 -0.11381744 69.09065186 -0.1139679 68.30651855 C-0.11326993 65.78504611 -0.10548294 63.26364708 -0.09765625 60.7421875 C-0.09579166 58.99626709 -0.09436795 57.25034616 -0.09336853 55.50442505 C-0.08954659 50.90454672 -0.07971905 46.30469986 -0.06866455 41.70483398 C-0.05844349 37.0128624 -0.05386942 32.32088575 -0.04882812 27.62890625 C-0.03809651 18.41925699 -0.02102394 9.20963111 0 0 Z " fill="#4F992C" transform="translate(28,56)"/>
<path d="M0 0 C5.75 -0.125 5.75 -0.125 8 1 C7.67 4.63 7.34 8.26 7 12 C0.9453125 12.9765625 0.9453125 12.9765625 -1 13 C-3 11 -3 11 -3.125 8.375 C-3.08375 7.59125 -3.0425 6.8075 -3 6 C-0.29120665 4.64560332 2.00933268 4.93498549 5 5 C5 4.01 5 3.02 5 2 C2.69 2.66 0.38 3.32 -2 4 C-1.34 2.68 -0.68 1.36 0 0 Z " fill="#1E1E1E" transform="translate(386,127)"/>
<path d="M0 0 C0.66 0 1.32 0 2 0 C2 0.66 2 1.32 2 2 C2.99 2 3.98 2 5 2 C5.0825 2.78375 5.165 3.5675 5.25 4.375 C5.4975 5.24125 5.745 6.1075 6 7 C6.66 7.309375 7.32 7.61875 8 7.9375 C10 9 10 9 10.9375 11.9375 C11 15 11 15 9.8125 16.9375 C8 18 8 18 5.9375 18 C3.15009916 16.5613415 2.98522469 14.93945638 2 12 C1.57426894 9.90550831 1.19999506 7.79996789 0.875 5.6875 C0.70742187 4.61886719 0.53984375 3.55023438 0.3671875 2.44921875 C0.24601562 1.64097656 0.12484375 0.83273438 0 0 Z " fill="#2F901D" transform="translate(92,72)"/>
<path d="M0 0 C1.98 0 3.96 0 6 0 C5.01 1.485 5.01 1.485 4 3 C3.34 3 2.68 3 2 3 C1.67 4.98 1.34 6.96 1 9 C2.3303125 9.7115625 2.3303125 9.7115625 3.6875 10.4375 C7.8657506 13.19315575 10.21278104 17.39413222 12 22 C11.67 22.66 11.34 23.32 11 24 C10.566875 23.236875 10.13375 22.47375 9.6875 21.6875 C8.17334484 19.03619492 8.17334484 19.03619492 6.3125 17.375 C5 16 5 16 5 13 C4.01 13 3.02 13 2 13 C2 12.34 2 11.68 2 11 C1.34 11 0.68 11 0 11 C0.350625 11.7425 0.70125 12.485 1.0625 13.25 C2.0720098 16.21122875 1.87980884 17.12062561 1 20 C0.57847656 19.01257813 0.15695313 18.02515625 -0.27734375 17.0078125 C-0.83069726 15.71352802 -1.38408442 14.41925794 -1.9375 13.125 C-2.21529297 12.47402344 -2.49308594 11.82304688 -2.77929688 11.15234375 C-4.31893559 7.54379777 -4.31893559 7.54379777 -6 4 C-4.68 4 -3.36 4 -2 4 C-1.34 2.68 -0.68 1.36 0 0 Z " fill="#499539" transform="translate(92,61)"/>
<path d="M0 0 C2.375 0.375 2.375 0.375 4.375 2.375 C4.5 5 4.5 5 4.375 7.375 C1.735 7.375 -0.905 7.375 -3.625 7.375 C-3.625 8.365 -3.625 9.355 -3.625 10.375 C-2.861875 10.024375 -2.09875 9.67375 -1.3125 9.3125 C1.375 8.375 1.375 8.375 4.375 9.375 C2.6875 11.4375 2.6875 11.4375 0.375 13.375 C-2.25 13.3125 -2.25 13.3125 -4.625 12.375 C-6.79051116 9.12673326 -7.17656953 8.14405843 -6.625 4.375 C-4.56988147 1.55872646 -3.48227409 0.49746773 0 0 Z " fill="#2D2D2D" transform="translate(529.625,126.625)"/>
<path d="M0 0 C0.33 1.98 0.66 3.96 1 6 C-1.97 6 -4.94 6 -8 6 C-8 6.99 -8 7.98 -8 9 C-7.236875 8.649375 -6.47375 8.29875 -5.6875 7.9375 C-3 7 -3 7 0 8 C-1.6875 10.0625 -1.6875 10.0625 -4 12 C-8.3 11.7 -8.3 11.7 -10 10 C-10.45868465 2.89038786 -10.45868465 2.89038786 -8.9375 -0.0625 C-5.8584134 -1.55238061 -3.25143042 -0.67482518 0 0 Z " fill="#181818" transform="translate(347,128)"/>
<path d="M0 0 C2.9375 0.375 2.9375 0.375 4.9375 2.375 C5.0625 5 5.0625 5 4.9375 7.375 C1.9675 7.375 -1.0025 7.375 -4.0625 7.375 C-3.7325 8.035 -3.4025 8.695 -3.0625 9.375 C0.4025 8.88 0.4025 8.88 3.9375 8.375 C3.25 10.3125 3.25 10.3125 1.9375 12.375 C-0.5 13.3125 -0.5 13.3125 -3.0625 13.375 C-4.875 12.3125 -4.875 12.3125 -6.0625 10.375 C-6.48704541 7.04939432 -6.37664524 5.03819551 -4.9375 2 C-3.0625 0.375 -3.0625 0.375 0 0 Z " fill="#363636" transform="translate(414.0625,126.625)"/>
<path d="M0 0 C5.75 -0.125 5.75 -0.125 8 1 C7.67 4.63 7.34 8.26 7 12 C4.03 12 1.06 12 -2 12 C-2.625 9.625 -2.625 9.625 -3 7 C-1 5 -1 5 2.125 4.875 C3.07375 4.91625 4.0225 4.9575 5 5 C5 4.01 5 3.02 5 2 C4.401875 2.33 3.80375 2.66 3.1875 3 C1 4 1 4 -2 4 C-1.34 2.68 -0.68 1.36 0 0 Z " fill="#484848" transform="translate(471,127)"/>
<path d="M0 0 C0.99 0 1.98 0 3 0 C3 1.32 3 2.64 3 4 C4.65 4 6.3 4 8 4 C9.36884358 8.51718381 8.47075246 11.58774263 7 16 C6.34 16 5.68 16 5 16 C5.33 12.7 5.66 9.4 6 6 C1.97677419 7.47178598 1.97677419 7.47178598 1.171875 9.9453125 C1.03265625 10.66460937 0.8934375 11.38390625 0.75 12.125 C0.5025 13.40375 0.255 14.6825 0 16 C-0.66 16 -1.32 16 -2 16 C-1.42978066 10.6496441 -0.79265639 5.32212148 0 0 Z " fill="#161616" transform="translate(326,123)"/>
<path d="M0 0 C0.66 0 1.32 0 2 0 C2 1.32 2 2.64 2 4 C2.804375 3.979375 3.60875 3.95875 4.4375 3.9375 C7 4 7 4 8 5 C7.91015699 6.85772162 7.75388139 8.71247985 7.5625 10.5625 C7.46066406 11.57441406 7.35882813 12.58632812 7.25390625 13.62890625 C7.17011719 14.41136719 7.08632813 15.19382813 7 16 C6.01 16 5.02 16 4 16 C4.66 12.7 5.32 9.4 6 6 C2.02390056 7.50830866 2.02390056 7.50830866 0.953125 9.9453125 C0.72109375 10.66460937 0.4890625 11.38390625 0.25 12.125 C0.00765625 12.84945312 -0.2346875 13.57390625 -0.484375 14.3203125 C-0.65453125 14.87460938 -0.8246875 15.42890625 -1 16 C-1.66 16 -2.32 16 -3 16 C-2.68954268 14.0830014 -2.37655329 12.16641277 -2.0625 10.25 C-1.88847656 9.18265625 -1.71445312 8.1153125 -1.53515625 7.015625 C-1.11295829 4.63652407 -0.62797116 2.33084789 0 0 Z " fill="#101010" transform="translate(373,123)"/>
<path d="M0 0 C0.33 0 0.66 0 1 0 C1.14570522 4.20796686 1.23421087 8.41528166 1.3125 12.625 C1.3753418 14.40970703 1.3753418 14.40970703 1.43945312 16.23046875 C1.57759344 26.12131513 1.57759344 26.12131513 -1.39453125 29.7734375 C-5.45249491 33.24126252 -7.7108764 33.09794673 -13 33 C-12.67 32.34 -12.34 31.68 -12 31 C-11.01 31.33 -10.02 31.66 -9 32 C-9.33 30.35 -9.66 28.7 -10 27 C-8.02 27.66 -6.04 28.32 -4 29 C-3.67 28.34 -3.34 27.68 -3 27 C-2.67 27 -2.34 27 -2 27 C-2 24.69 -2 22.38 -2 20 C-1.34 20 -0.68 20 0 20 C0 13.4 0 6.8 0 0 Z " fill="#0C6A2E" transform="translate(149,110)"/>
<path d="M0 0 C1.4540625 0.0309375 1.4540625 0.0309375 2.9375 0.0625 C3.2675 1.3825 3.5975 2.7025 3.9375 4.0625 C1.9575 3.4025 -0.0225 2.7425 -2.0625 2.0625 C-0.12995228 4.0870738 1.56908688 5.48355792 3.9375 7.0625 C3.9375 8.3825 3.9375 9.7025 3.9375 11.0625 C0.9375 13.0625 0.9375 13.0625 -2.25 12.6875 C-3.6421875 12.378125 -3.6421875 12.378125 -5.0625 12.0625 C-5.3925 10.7425 -5.7225 9.4225 -6.0625 8.0625 C-3.7525 8.7225 -1.4425 9.3825 0.9375 10.0625 C-0.69662443 8.35409719 -1.93156094 7.12796953 -4.0625 6.0625 C-4.105221 4.39638095 -4.10313832 2.72867115 -4.0625 1.0625 C-3.0625 0.0625 -3.0625 0.0625 0 0 Z " fill="#131313" transform="translate(553.0625,126.9375)"/>
<path d="M0 0 C0.99 0.33 1.98 0.66 3 1 C3 1.66 3 2.32 3 3 C7.95 2.67 12.9 2.34 18 2 C18.66 4.31 19.32 6.62 20 9 C19.52691406 8.69964844 19.05382812 8.39929688 18.56640625 8.08984375 C13.90001122 5.4064392 10.47314225 4.43277665 5.12109375 5.3046875 C1.6228111 6.45145419 -0.41508679 8.41508679 -3 11 C-3 9.68 -3 8.36 -3 7 C-2.34 7 -1.68 7 -1 7 C-1.309375 5.824375 -1.309375 5.824375 -1.625 4.625 C-1.74875 3.75875 -1.8725 2.8925 -2 2 C-1.34 1.34 -0.68 0.68 0 0 Z " fill="#4CA022" transform="translate(66,56)"/>
<path d="M0 0 C0 2.33333333 0 4.66666667 0 7 C0.66 7 1.32 7 2 7 C2.350625 7.66 2.70125 8.32 3.0625 9 C4.7957012 11.20896277 4.7957012 11.20896277 7.1953125 11.265625 C9.47479958 11.25133354 11.72720178 11.17153194 14 11 C14 11.99 14 12.98 14 14 C12.56260487 14.02712066 11.12506137 14.04645067 9.6875 14.0625 C8.48673828 14.07990234 8.48673828 14.07990234 7.26171875 14.09765625 C5 14 5 14 2 13 C1.67 13.99 1.34 14.98 1 16 C-1.72407899 12.90935629 -2.39214403 10.97973095 -2.3125 6.875 C-2.30863281 6.00617188 -2.30476563 5.13734375 -2.30078125 4.2421875 C-2 2 -2 2 0 0 Z " fill="#E9F9DE" transform="translate(50,85)"/>
<path d="M0 0 C1.29315061 0.95632999 2.58446853 1.91513851 3.875 2.875 C4.59429687 3.40867187 5.31359375 3.94234375 6.0546875 4.4921875 C8 6 8 6 10 8 C7 8 4 8 1 8 C0.071875 8.165 -0.85625 8.33 -1.8125 8.5 C-7.81352787 9.42223588 -13.94758939 9.0755502 -20 9 C-20 8.34 -20 7.68 -20 7 C-19.13117188 7.03480469 -18.26234375 7.06960937 -17.3671875 7.10546875 C-8.67158528 7.55285694 -8.67158528 7.55285694 -1 4 C-0.33477828 1.94467569 -0.33477828 1.94467569 0 0 Z " fill="#378C34" transform="translate(109,96)"/>
<path d="M0 0 C1.2065625 0.0309375 1.2065625 0.0309375 2.4375 0.0625 C3.0975 1.3825 3.7575 2.7025 4.4375 4.0625 C2.4575 3.4025 0.4775 2.7425 -1.5625 2.0625 C-0.716875 2.784375 0.12875 3.50625 1 4.25 C3.4375 7.0625 3.4375 7.0625 3.25 9.875 C2.981875 10.596875 2.71375 11.31875 2.4375 12.0625 C0.1275 12.0625 -2.1825 12.0625 -4.5625 12.0625 C-4.8925 10.7425 -5.2225 9.4225 -5.5625 8.0625 C-4.9025 8.0625 -4.2425 8.0625 -3.5625 8.0625 C-3.5625 8.7225 -3.5625 9.3825 -3.5625 10.0625 C-1.9125 10.0625 -0.2625 10.0625 1.4375 10.0625 C-0.49504772 8.0379262 -2.19408688 6.64144208 -4.5625 5.0625 C-3.43829114 0.08386076 -3.43829114 0.08386076 0 0 Z " fill="#0D0D0D" transform="translate(541.5625,126.9375)"/>
<path d="M0 0 C3.125 0.375 3.125 0.375 6 1 C6.33 2.65 6.66 4.3 7 6 C4.75 7.625 4.75 7.625 2 9 C-0.3125 8.1875 -0.3125 8.1875 -2 7 C-2.125 4.625 -2.125 4.625 -2 2 C-1.34 1.34 -0.68 0.68 0 0 Z " fill="#131313" transform="translate(238,50)"/>
<path d="M0 0 C4.29 0 8.58 0 13 0 C13 0.66 13 1.32 13 2 C11.02 2 9.04 2 7 2 C6.93941406 2.67546875 6.87882812 3.3509375 6.81640625 4.046875 C6.73261719 4.93890625 6.64882813 5.8309375 6.5625 6.75 C6.48128906 7.63171875 6.40007812 8.5134375 6.31640625 9.421875 C6.03761535 11.69350452 5.61209423 13.79851823 5 16 C4.01 16 3.02 16 2 16 C2.99 11.38 3.98 6.76 5 2 C3.35 2 1.7 2 0 2 C0 1.34 0 0.68 0 0 Z " fill="#080808" transform="translate(312,123)"/>
<path d="M0 0 C1.32 0.33 2.64 0.66 4 1 C4.66 0.67 5.32 0.34 6 0 C5.67 4.29 5.34 8.58 5 13 C4.34 13 3.68 13 3 13 C2.67 12.34 2.34 11.68 2 11 C0.68 11.33 -0.64 11.66 -2 12 C-1.34 8.04 -0.68 4.08 0 0 Z " fill="#CECECE" transform="translate(507,127)"/>
<path d="M0 0 C14.68252516 -0.48581885 14.68252516 -0.48581885 21.0625 3.1875 C22.606522 6.1726092 21.65945218 8.8226395 21 12 C20.443125 11.2575 19.88625 10.515 19.3125 9.75 C16.59910541 6.52326049 13.78975344 3.89487672 10 2 C8.45976004 1.93049459 6.91665012 1.91547643 5.375 1.9375 C4.55773437 1.94652344 3.74046875 1.95554688 2.8984375 1.96484375 C2.27195312 1.97644531 1.64546875 1.98804688 1 2 C0.67 1.34 0.34 0.68 0 0 Z " fill="#399028" transform="translate(98,59)"/>
<path d="M0 0 C0.66 0 1.32 0 2 0 C1.25 5.75 1.25 5.75 -1 8 C-2.98821313 8.39764263 -4.98944339 8.73775349 -7 9 C-7.33 10.32 -7.66 11.64 -8 13 C-8.99 12.67 -9.98 12.34 -11 12 C-10.745504 10.51793505 -10.47088238 9.03931385 -10.1875 7.5625 C-10.03667969 6.73878906 -9.88585937 5.91507813 -9.73046875 5.06640625 C-9.48941406 4.38449219 -9.24835938 3.70257813 -9 3 C-8.01 2.67 -7.02 2.34 -6 2 C-6 3.32 -6 4.64 -6 6 C-4.04105639 5.88693303 -4.04105639 5.88693303 -2 5 C-0.70339566 2.50965614 -0.70339566 2.50965614 0 0 Z " fill="#191919" transform="translate(490,131)"/>
<path d="M0 0 C1.65 0.33 3.3 0.66 5 1 C5 1.66 5 2.32 5 3 C3.68 3 2.36 3 1 3 C1 3.66 1 4.32 1 5 C1.66 5 2.32 5 3 5 C3 5.66 3 6.32 3 7 C2.01 7 1.02 7 0 7 C-0.33 10.3 -0.66 13.6 -1 17 C-1.99 16.67 -2.98 16.34 -4 16 C-3.67 12.37 -3.34 8.74 -3 5 C-2.34 5 -1.68 5 -1 5 C-0.67 3.35 -0.34 1.7 0 0 Z " fill="#161616" transform="translate(443,122)"/>
<path d="M0 0 C0.33 0.66 0.66 1.32 1 2 C1.66 2 2.32 2 3 2 C3.33 2.66 3.66 3.32 4 4 C6.02463255 4.65213292 6.02463255 4.65213292 8 5 C8 6.65 8 8.3 8 10 C5.69 10.66 3.38 11.32 1 12 C0.67 8.04 0.34 4.08 0 0 Z " fill="#24871D" transform="translate(101,91)"/>
<path d="M0 0 C1.3921875 0.2784375 1.3921875 0.2784375 2.8125 0.5625 C6.01343771 1.24123881 6.01343771 1.24123881 9 0 C9 1.32 9 2.64 9 4 C11.475 4.99 11.475 4.99 14 6 C14 6.66 14 7.32 14 8 C9.25 7.125 9.25 7.125 7 6 C7 6.66 7 7.32 7 8 C6.34 8 5.68 8 5 8 C4.731875 7.38125 4.46375 6.7625 4.1875 6.125 C3.04443152 3.7004767 3.04443152 3.7004767 0 2 C0 1.34 0 0.68 0 0 Z " fill="#E3E3E3" transform="translate(540,129)"/>
<path d="M0 0 C0.66 0.33 1.32 0.66 2 1 C1.47599609 1.82564453 1.47599609 1.82564453 0.94140625 2.66796875 C-4.3064287 12.25678898 -3.92401861 22.30152277 -4 33 C-4.33 33 -4.66 33 -5 33 C-5.14599475 28.81287049 -5.23430718 24.62640105 -5.3125 20.4375 C-5.35439453 19.25607422 -5.39628906 18.07464844 -5.43945312 16.85742188 C-5.54249256 9.50040633 -5.08525513 5.45363582 0 0 Z " fill="#62B11C" transform="translate(33,23)"/>
<path d="M0 0 C2.4375 1.1875 2.4375 1.1875 3.4375 3.1875 C4.0975 3.1875 4.7575 3.1875 5.4375 3.1875 C5.4375 4.1775 5.4375 5.1675 5.4375 6.1875 C-0.6171875 7.1640625 -0.6171875 7.1640625 -2.5625 7.1875 C-4.5625 5.1875 -4.5625 5.1875 -4.6875 2.5625 C-4.64625 1.77875 -4.605 0.995 -4.5625 0.1875 C-2.5625 -0.8125 -2.5625 -0.8125 0 0 Z " fill="#5C5C5C" transform="translate(387.5625,132.8125)"/>
<path d="M0 0 C1.98 0 3.96 0 6 0 C5.01 1.485 5.01 1.485 4 3 C3.34 3 2.68 3 2 3 C1.71125 3.763125 1.4225 4.52625 1.125 5.3125 C0 8 0 8 -2 11 C-3.98 7.535 -3.98 7.535 -6 4 C-4.68 4 -3.36 4 -2 4 C-1.34 2.68 -0.68 1.36 0 0 Z " fill="#409728" transform="translate(92,61)"/>
<path d="M0 0 C1.65 0.33 3.3 0.66 5 1 C4.67 2.98 4.34 4.96 4 7 C2.35 7.33 0.7 7.66 -1 8 C-1.625 5.6875 -1.625 5.6875 -2 3 C-1.34 2.01 -0.68 1.02 0 0 Z " fill="#E6E6E6" transform="translate(431,129)"/>
<path d="M0 0 C0.99 0 1.98 0 3 0 C2.68806536 1.72926874 2.37542638 3.45841044 2.0625 5.1875 C1.88847656 6.15042969 1.71445312 7.11335937 1.53515625 8.10546875 C1.0476265 10.74239972 0.53328895 13.3719905 0 16 C-0.99 15.67 -1.98 15.34 -3 15 C-2.34 12.69 -1.68 10.38 -1 8 C-3.31 8 -5.62 8 -8 8 C-8 7.67 -8 7.34 -8 7 C-5.69 7 -3.38 7 -1 7 C-0.67 4.69 -0.34 2.38 0 0 Z " fill="#060606" transform="translate(465,123)"/>
<path d="M0 0 C1.63001953 0.01353516 1.63001953 0.01353516 3.29296875 0.02734375 C4.12441406 0.03894531 4.95585938 0.05054687 5.8125 0.0625 C6.4725 1.7125 7.1325 3.3625 7.8125 5.0625 C7.25433594 4.74023438 6.69617188 4.41796875 6.12109375 4.0859375 C2.14340297 2.32256189 -1.92400397 2.47015645 -6.1875 3.0625 C-9.27441577 4.85767723 -9.27441577 4.85767723 -11.1875 7.0625 C-11.1875 6.0725 -11.1875 5.0825 -11.1875 4.0625 C-10.5275 4.0625 -9.8675 4.0625 -9.1875 4.0625 C-9.1875 3.0725 -9.1875 2.0825 -9.1875 1.0625 C-5.90230525 -0.03256492 -3.45086585 -0.03710608 0 0 Z " fill="#5BA539" transform="translate(60.1875,78.9375)"/>
<path d="M0 0 C2.33944736 0.28730055 4.6739143 0.61936779 7 1 C7.33 2.98 7.66 4.96 8 7 C7.34 6.34 6.68 5.68 6 5 C3.78927023 4.75746187 3.78927023 4.75746187 1.375 4.875 C0.14910156 4.90207031 0.14910156 4.90207031 -1.1015625 4.9296875 C-2.04128906 4.96449219 -2.04128906 4.96449219 -3 5 C-1.125 1.125 -1.125 1.125 0 0 Z " fill="#616161" transform="translate(340,127)"/>
<path d="M0 0 C2.0625 0.4375 2.0625 0.4375 4 1 C3.67 3.31 3.34 5.62 3 8 C1.35 7.67 -0.3 7.34 -2 7 C-1.125 1.125 -1.125 1.125 0 0 Z " fill="#E8E8E8" transform="translate(400,129)"/>
<path d="M0 0 C2.0625 0.4375 2.0625 0.4375 4 1 C4.125 3.375 4.125 3.375 4 6 C3.34 6.66 2.68 7.32 2 8 C-0.125 7.625 -0.125 7.625 -2 7 C-1.125 1.125 -1.125 1.125 0 0 Z " fill="#EDEDED" transform="translate(498,129)"/>
<path d="M0 0 C2.18975773 3.28463659 2.99806563 6.20696275 4 10 C3.34 10 2.68 10 2 10 C1.67 9.01 1.34 8.02 1 7 C0.01 7.495 0.01 7.495 -1 8 C-1.165 9.155 -1.33 10.31 -1.5 11.5 C-1.665 12.655 -1.83 13.81 -2 15 C-2.99 15.495 -2.99 15.495 -4 16 C-4 11.71 -4 7.42 -4 3 C-3.01 3 -2.02 3 -1 3 C-0.67 2.01 -0.34 1.02 0 0 Z " fill="#519A3A" transform="translate(74,83)"/>
<path d="M0 0 C2 2 2 2 2.125 5.125 C2.08375 6.07375 2.0425 7.0225 2 8 C2.66 8.33 3.32 8.66 4 9 C3.01 9 2.02 9 1 9 C0.34 10.65 -0.32 12.3 -1 14 C-1.66 14 -2.32 14 -3 14 C-2.40380045 9.13103697 -1.43023178 4.67209049 0 0 Z " fill="#101010" transform="translate(397,130)"/>
<path d="M0 0 C0.33 0.66 0.66 1.32 1 2 C3.97 1.34 6.94 0.68 10 0 C10 0.99 10 1.98 10 3 C7.36 3.33 4.72 3.66 2 4 C2 5.32 2 6.64 2 8 C1.01 8.33 0.02 8.66 -1 9 C-0.67 6.03 -0.34 3.06 0 0 Z " fill="#DDDDDD" transform="translate(381,129)"/>
<path d="M0 0 C0.99 0 1.98 0 3 0 C3 2.31 3 4.62 3 7 C1.35 7.33 -0.3 7.66 -2 8 C-2.125 5.125 -2.125 5.125 -2 2 C-1.34 1.34 -0.68 0.68 0 0 Z " fill="#F1F1F1" transform="translate(486,129)"/>
<path d="M0 0 C2.97 0.33 5.94 0.66 9 1 C8.01 1.66 7.02 2.32 6 3 C6 3.66 6 4.32 6 5 C7.98 5 9.96 5 12 5 C12 5.33 12 5.66 12 6 C10.5629191 6.05422947 9.12524538 6.09289723 7.6875 6.125 C6.88699219 6.14820312 6.08648437 6.17140625 5.26171875 6.1953125 C3 6 3 6 0 4 C0 2.68 0 1.36 0 0 Z " fill="#E9F9E7" transform="translate(52,98)"/>
<path d="M0 0 C0.66 0.33 1.32 0.66 2 1 C1.67 1.5775 1.34 2.155 1 2.75 C-0.27075898 5.19883862 -0.27075898 5.19883862 0 9 C0.99 9.66 1.98 10.32 3 11 C2.34 11 1.68 11 1 11 C0.67 11.66 0.34 12.32 0 13 C-0.99 12.34 -1.98 11.68 -3 11 C-3.67605634 3.90140845 -3.67605634 3.90140845 -1.5 1 C-1.005 0.67 -0.51 0.34 0 0 Z " fill="#202020" transform="translate(430,127)"/>
<path d="M0 0 C0.66 0.33 1.32 0.66 2 1 C1.34 4.63 0.68 8.26 0 12 C-0.99 12.33 -1.98 12.66 -3 13 C-2.52060632 8.28596212 -2.03165952 4.33420699 0 0 Z " fill="#0E0E0E" transform="translate(495,131)"/>
<path d="M0 0 C0.78375 0.04125 1.5675 0.0825 2.375 0.125 C2.375 1.775 2.375 3.425 2.375 5.125 C0.395 5.125 -1.585 5.125 -3.625 5.125 C-3.955 4.135 -4.285 3.145 -4.625 2.125 C-2.625 0.125 -2.625 0.125 0 0 Z " fill="#757575" transform="translate(529.625,126.875)"/>
<path d="M0 0 C3.96 0.33 7.92 0.66 12 1 C11.01 1.495 11.01 1.495 10 2 C9.67 2.99 9.34 3.98 9 5 C8.67 4.67 8.34 4.34 8 4 C6.00041636 3.95919217 3.99954746 3.95745644 2 4 C2 3.34 2 2.68 2 2 C1.34 2 0.68 2 0 2 C0 1.34 0 0.68 0 0 Z " fill="#1A7D24" transform="translate(119,104)"/>
<path d="M0 0 C0.33 0 0.66 0 1 0 C1.35687732 5.35315985 1.35687732 5.35315985 0 7.8125 C-3.18068454 9.70103144 -6.33469879 9.69956547 -10 10 C-9.01 9.34 -8.02 8.68 -7 8 C-3.73105302 5.60808758 -1.49833481 3.81394315 0 0 Z " fill="#97B29F" transform="translate(150,134)"/>
<path d="M0 0 C0.99 0 1.98 0 3 0 C2.44687265 4.02992782 1.8441938 8.02022924 1 12 C0.01 11.67 -0.98 11.34 -2 11 C-1.34 7.37 -0.68 3.74 0 0 Z " fill="#151515" transform="translate(507,127)"/>
<path d="M0 0 C0.66 0.33 1.32 0.66 2 1 C2 2.65 2 4.3 2 6 C-0.97 6 -3.94 6 -7 6 C-7 4.68 -7 3.36 -7 2 C-6.67 2.66 -6.34 3.32 -6 4 C-4.02 4 -2.04 4 0 4 C0 2.68 0 1.36 0 0 Z " fill="#010101" transform="translate(532,128)"/>
<path d="M0 0 C6.02536998 -0.602537 6.02536998 -0.602537 8.80078125 1.11328125 C10.25599455 2.34621853 11.63479157 3.66808933 13 5 C12.67 5.66 12.34 6.32 12 7 C8.04 5.02 4.08 3.04 0 1 C0 0.67 0 0.34 0 0 Z " fill="#E2F6DE" transform="translate(139,20)"/>
<path d="M0 0 C0.66 0 1.32 0 2 0 C2.33 0.99 2.66 1.98 3 3 C4.65 3.33 6.3 3.66 8 4 C8.33 4.99 8.66 5.98 9 7 C3.54545455 7.36363636 3.54545455 7.36363636 1.125 5.75 C0 4 0 4 0 0 Z " fill="#333333" transform="translate(356,133)"/>
<path d="M0 0 C0.99 0.33 1.98 0.66 3 1 C1.515 6.445 1.515 6.445 0 12 C-0.66 12 -1.32 12 -2 12 C-1.85904936 10.3745692 -1.71207913 8.74965949 -1.5625 7.125 C-1.48128906 6.22007812 -1.40007812 5.31515625 -1.31640625 4.3828125 C-1 2 -1 2 0 0 Z " fill="#020202" transform="translate(513,127)"/>
<path d="M0 0 C0.474375 0.495 0.94875 0.99 1.4375 1.5 C5.20358351 3.70453669 8.73459379 3.24608113 13 3 C13 3.99 13 4.98 13 6 C4.85614849 6.62645012 4.85614849 6.62645012 1.4375 4.125 C0 2 0 2 0 0 Z " fill="#80A47B" transform="translate(51,93)"/>
<path d="M0 0 C0.78375 0.04125 1.5675 0.0825 2.375 0.125 C2.375 0.785 2.375 1.445 2.375 2.125 C1.055 2.455 -0.265 2.785 -1.625 3.125 C-1.625 3.785 -1.625 4.445 -1.625 5.125 C-0.635 5.785 0.355 6.445 1.375 7.125 C-0.275 7.125 -1.925 7.125 -3.625 7.125 C-4.25 4.75 -4.25 4.75 -4.625 2.125 C-2.625 0.125 -2.625 0.125 0 0 Z " fill="#060606" transform="translate(472.625,131.875)"/>
<path d="M0 0 C0.70189453 0.01353516 1.40378906 0.02707031 2.12695312 0.04101562 C3.85579829 0.07629818 5.58424765 0.13010417 7.3125 0.1875 C7.3125 0.5175 7.3125 0.8475 7.3125 1.1875 C6.24322266 1.27837891 6.24322266 1.27837891 5.15234375 1.37109375 C-0.15710288 1.83558101 -5.420909 2.36825251 -10.6875 3.1875 C-7.97885416 -0.76650025 -4.33266512 -0.15777212 0 0 Z " fill="#5EB610" transform="translate(44.6875,21.8125)"/>
<path d="M0 0 C1.2065625 0.0309375 1.2065625 0.0309375 2.4375 0.0625 C3.0975 1.3825 3.7575 2.7025 4.4375 4.0625 C2.4575 3.4025 0.4775 2.7425 -1.5625 2.0625 C-1.8925 2.7225 -2.2225 3.3825 -2.5625 4.0625 C-3.5525 4.5575 -3.5525 4.5575 -4.5625 5.0625 C-3.43829114 0.08386076 -3.43829114 0.08386076 0 0 Z " fill="#161616" transform="translate(541.5625,126.9375)"/>
<path d="M0 0 C0 1.65 0 3.3 0 5 C-0.99 5.33 -1.98 5.66 -3 6 C-3 5.01 -3 4.02 -3 3 C-4.32 2.67 -5.64 2.34 -7 2 C-1.125 0 -1.125 0 0 0 Z " fill="#111111" transform="translate(393,131)"/>
<path d="M0 0 C0.825 0.639375 1.65 1.27875 2.5 1.9375 C6.23191406 4.46413081 9.55723303 4.69360228 14 5 C14 5.33 14 5.66 14 6 C12.58376784 6.05447047 11.16691809 6.09300508 9.75 6.125 C8.96109375 6.14820312 8.1721875 6.17140625 7.359375 6.1953125 C4.75289611 5.97954438 3.19232417 5.40935125 1 4 C0.25 1.875 0.25 1.875 0 0 Z " fill="#4E9831" transform="translate(49,99)"/>
<path d="M0 0 C0.33 0.66 0.66 1.32 1 2 C1.66 2 2.32 2 3 2 C3.33 4.31 3.66 6.62 4 9 C3.01 9.495 3.01 9.495 2 10 C-0.09350689 6.5980513 -0.17942163 3.94727588 0 0 Z " fill="#208D16" transform="translate(101,91)"/>
<path d="M0 0 C0.33 0.66 0.66 1.32 1 2 C1.99 2 2.98 2 4 2 C4 3.65 4 5.3 4 7 C2.68 6.67 1.36 6.34 0 6 C-1.125 2.25 -1.125 2.25 0 0 Z " fill="#359915" transform="translate(70,80)"/>
<path d="M0 0 C2.81939117 2.20979308 5.53058944 4.40062046 8 7 C1.125 6.125 1.125 6.125 0 5 C-0.04063832 3.33382885 -0.042721 1.66611905 0 0 Z " fill="#56A332" transform="translate(61,67)"/>
<path d="M0 0 C0.66 0.33 1.32 0.66 2 1 C0.25 4.875 0.25 4.875 -2 6 C-2.72159424 7.64363134 -3.39351421 9.31050386 -4 11 C-4.65234375 9.234375 -4.65234375 9.234375 -5 7 C-4.00390625 5.078125 -4.00390625 5.078125 -2.5625 3.25 C-2.08941406 2.63640625 -1.61632812 2.0228125 -1.12890625 1.390625 C-0.75636719 0.93171875 -0.38382813 0.4728125 0 0 Z " fill="#78BC37" transform="translate(33,23)"/>
<path d="M0 0 C2.31 0.66 4.62 1.32 7 2 C7 2.99 7 3.98 7 5 C4.03 4.505 4.03 4.505 1 4 C0.67 2.68 0.34 1.36 0 0 Z " fill="#3E3E3E" transform="translate(547,135)"/>
<path d="M0 0 C0.66 0 1.32 0 2 0 C1.25 5.75 1.25 5.75 -1 8 C-1.99 7.67 -2.98 7.34 -4 7 C-3.525625 6.401875 -3.05125 5.80375 -2.5625 5.1875 C-0.83534256 2.99617076 -0.83534256 2.99617076 0 0 Z " fill="#0B0B0B" transform="translate(490,131)"/>
<path d="M0 0 C0.33 0.66 0.66 1.32 1 2 C1.66 2 2.32 2 3 2 C2.67 4.31 2.34 6.62 2 9 C1.01 8.67 0.02 8.34 -1 8 C-0.67 5.36 -0.34 2.72 0 0 Z " fill="#CBCBCB" transform="translate(479,129)"/>
<path d="M0 0 C0.33 0 0.66 0 1 0 C1 2.31 1 4.62 1 7 C0.01 7.33 -0.98 7.66 -2 8 C-1.125 1.125 -1.125 1.125 0 0 Z " fill="#191919" transform="translate(520,131)"/>
<path d="M0 0 C2.16874252 0.50603992 3.99967627 0.99983813 6 2 C6.33 1.34 6.66 0.68 7 0 C6.67 1.65 6.34 3.3 6 5 C4.02 4.01 2.04 3.02 0 2 C0 1.34 0 0.68 0 0 Z " fill="#DFDFDF" transform="translate(551,129)"/>
<path d="M0 0 C0.66 0 1.32 0 2 0 C4.15305957 3.85756507 5.39253254 6.55129785 5 11 C0 3.5 0 3.5 0 0 Z " fill="#DEF5DA" transform="translate(100,75)"/>
<path d="M0 0 C0.66 0 1.32 0 2 0 C2 0.66 2 1.32 2 2 C2.99 2 3.98 2 5 2 C4.67 3.32 4.34 4.64 4 6 C3.01 5.67 2.02 5.34 1 5 C0.67 3.35 0.34 1.7 0 0 Z " fill="#2C9714" transform="translate(92,72)"/>
<path d="M0 0 C1.65 0 3.3 0 5 0 C5.66 2.31 6.32 4.62 7 7 C6.401875 6.360625 5.80375 5.72125 5.1875 5.0625 C3.09189663 2.79689611 3.09189663 2.79689611 0 2 C0 1.34 0 0.68 0 0 Z " fill="#439A1C" transform="translate(79,58)"/>
<path d="M0 0 C0.33 0.99 0.66 1.98 1 3 C0 4 0 4 -3.0625 4.0625 C-4.5165625 4.0315625 -4.5165625 4.0315625 -6 4 C-5.67 3.01 -5.34 2.02 -5 1 C-3.35 0.67 -1.7 0.34 0 0 Z " fill="#262626" transform="translate(502,135)"/>
<path d="M0 0 C-0.6875 1.9375 -0.6875 1.9375 -2 4 C-4.625 4.75 -4.625 4.75 -7 5 C-7 4.01 -7 3.02 -7 2 C-2.25 0 -2.25 0 0 0 Z " fill="#2C2C2C" transform="translate(418,135)"/>
<path d="M0 0 C2.625 0.9375 2.625 0.9375 5 2 C5 2.66 5 3.32 5 4 C3.35 4 1.7 4 0 4 C0 3.34 0 2.68 0 2 C-0.66 1.67 -1.32 1.34 -2 1 C-1.34 0.67 -0.68 0.34 0 0 Z " fill="#E0E0E0" transform="translate(538,133)"/>
<path d="M0 0 C2.64 0 5.28 0 8 0 C6.8125 1.5625 6.8125 1.5625 5 3 C2.3125 2.6875 2.3125 2.6875 0 2 C0 1.34 0 0.68 0 0 Z " fill="#EAEAEA" transform="translate(410,134)"/>
<path d="M0 0 C0.33 0 0.66 0 1 0 C1 2.31 1 4.62 1 7 C0.01 7.33 -0.98 7.66 -2 8 C-1.125 1.125 -1.125 1.125 0 0 Z " fill="#0C0C0C" transform="translate(454,131)"/>
<path d="M0 0 C2.64 0 5.28 0 8 0 C4.93882432 2.62386487 4.26826873 3 0 3 C0 2.01 0 1.02 0 0 Z " fill="#F6F6F6" transform="translate(339,134)"/>
<path d="M0 0 C0.66 0 1.32 0 2 0 C1.67 2.31 1.34 4.62 1 7 C0.01 7 -0.98 7 -2 7 C-1.125 2.25 -1.125 2.25 0 0 Z " fill="#191919" transform="translate(379,132)"/>
<path d="M0 0 C0.66 0.33 1.32 0.66 2 1 C2 2.65 2 4.3 2 6 C1.01 6 0.02 6 -1 6 C-1.66 4.35 -2.32 2.7 -3 1 C-2.01 0.67 -1.02 0.34 0 0 Z " fill="#2F892A" transform="translate(123,74)"/>
</svg>
